<svg width="24" height="22" viewBox="0 0 24 22" fill="none" xmlns="http://www.w3.org/2000/svg">
<path d="M22.7206 15.0794H7.01894L7.80732 13.4736L20.9065 13.4499C21.3495 13.4499 21.7292 13.1335 21.8083 12.6958L23.6224 2.5418C23.6698 2.27549 23.5986 2.00127 23.4246 1.79297C23.3386 1.69045 23.2313 1.60788 23.1102 1.55096C22.9891 1.49405 22.8571 1.46416 22.7232 1.46338L6.05918 1.40801L5.9168 0.738281C5.82715 0.311133 5.44219 0 5.00449 0H0.930762C0.683908 0 0.447165 0.098062 0.272614 0.272614C0.0980621 0.447165 0 0.683908 0 0.930762C0 1.17762 0.0980621 1.41436 0.272614 1.58891C0.447165 1.76346 0.683908 1.86152 0.930762 1.86152H4.25039L4.87266 4.81992L6.40459 12.237L4.43232 15.4564C4.3299 15.5947 4.26821 15.7588 4.25423 15.9303C4.24025 16.1018 4.27454 16.2738 4.35322 16.4268C4.51143 16.7405 4.83047 16.9383 5.18379 16.9383H6.83965C6.48664 17.4071 6.29597 17.9782 6.29648 18.5651C6.29648 20.0575 7.50937 21.2704 9.00176 21.2704C10.4941 21.2704 11.707 20.0575 11.707 18.5651C11.707 17.9771 11.5119 17.405 11.1639 16.9383H15.4116C15.0586 17.4071 14.8679 17.9782 14.8685 18.5651C14.8685 20.0575 16.0813 21.2704 17.5737 21.2704C19.0661 21.2704 20.279 20.0575 20.279 18.5651C20.279 17.9771 20.0839 17.405 19.7358 16.9383H22.7232C23.2348 16.9383 23.654 16.5217 23.654 16.0075C23.6525 15.7609 23.5535 15.5249 23.3786 15.3511C23.2037 15.1772 22.9672 15.0795 22.7206 15.0794V15.0794ZM6.44678 3.24316L21.629 3.29326L20.1419 11.62L8.21601 11.6411L6.44678 3.24316ZM9.00176 19.3983C8.54297 19.3983 8.16855 19.0239 8.16855 18.5651C8.16855 18.1063 8.54297 17.7319 9.00176 17.7319C9.46055 17.7319 9.83496 18.1063 9.83496 18.5651C9.83496 18.7861 9.74718 18.998 9.59092 19.1543C9.43466 19.3106 9.22274 19.3983 9.00176 19.3983V19.3983ZM17.5737 19.3983C17.1149 19.3983 16.7405 19.0239 16.7405 18.5651C16.7405 18.1063 17.1149 17.7319 17.5737 17.7319C18.0325 17.7319 18.4069 18.1063 18.4069 18.5651C18.4069 18.7861 18.3191 18.998 18.1629 19.1543C18.0066 19.3106 17.7947 19.3983 17.5737 19.3983V19.3983Z" fill="#FD6383"/>
</svg>
