<svg width="39" height="40" viewBox="0 0 39 40" fill="none" xmlns="http://www.w3.org/2000/svg">
<path d="M38.2499 20.9383L37.0007 19.6891C35.9663 18.6531 34.6568 17.9351 33.2271 17.6199C33.0603 17.2134 32.8662 16.8186 32.646 16.4384C32.5546 15.5924 32.2246 14.7899 31.6944 14.1244C31.9745 13.4434 32.0824 12.704 32.0088 11.9714C31.9351 11.2388 31.6821 10.5356 31.272 9.92408C30.862 9.31253 30.3077 8.81141 29.6579 8.46504C29.0082 8.11867 28.2832 7.93771 27.5469 7.93817C26.8547 7.93874 26.1722 8.10076 25.5537 8.41135C25.6702 6.50681 25.0754 4.62686 23.8848 3.13583L22.2815 1.13173C22.2215 1.0567 22.1454 0.996142 22.0588 0.954524C21.9722 0.912905 21.8773 0.891296 21.7812 0.891296C21.6852 0.891296 21.5903 0.912905 21.5037 0.954524C21.4171 0.996142 21.341 1.0567 21.281 1.13173L19.6777 3.13583C19.1375 3.80988 18.7144 4.56985 18.4259 5.38404C17.9362 5.36443 17.4457 5.38142 16.9585 5.43489C15.9514 4.9723 14.8559 4.73354 13.7476 4.73505H12.1719C12.002 4.73505 11.839 4.80254 11.7189 4.92268C11.5987 5.04282 11.5312 5.20577 11.5312 5.37567V7.14232C11.5312 7.37772 11.5422 7.61183 11.5642 7.84464C10.0725 9.18128 9.02854 10.9449 8.57429 12.8956L8.61115 12.9041C8.16221 13.4897 7.86503 14.1771 7.74605 14.9053C7.62708 15.6335 7.69 16.3798 7.92921 17.0778L5.85508 27.8044C5.69836 27.7818 5.53886 27.8183 5.4075 27.9067C5.27615 27.9951 5.1823 28.1291 5.14415 28.2828L4.58876 30.5041L3.00049 31.0336C2.8969 31.0681 2.80386 31.1285 2.7302 31.2091C2.65654 31.2897 2.6047 31.3878 2.57961 31.4941C2.55453 31.6004 2.55702 31.7113 2.58686 31.8164C2.61669 31.9214 2.67288 32.0171 2.75009 32.0943L2.97578 32.32L1.88612 32.8648C1.40255 33.1066 0.983358 33.4598 0.66309 33.8954C0.342823 34.331 0.130648 34.8365 0.0440522 35.3702C-0.0425439 35.9038 -0.00108304 36.4504 0.165018 36.965C0.33112 37.4795 0.617106 37.9471 0.999411 38.3294C1.38172 38.7117 1.84939 38.9977 2.3639 39.1638C2.87842 39.3299 3.42503 39.3713 3.9587 39.2847C4.49238 39.1981 4.99783 38.986 5.43342 38.6657C5.869 38.3454 6.22224 37.9262 6.46403 37.4426L7.00882 36.353L7.23447 36.5787C7.31169 36.6559 7.40736 36.7121 7.51241 36.7419C7.61746 36.7718 7.72839 36.7743 7.83467 36.7492C7.94096 36.7241 8.03906 36.6722 8.11968 36.5986C8.20029 36.5249 8.26073 36.4319 8.29527 36.3283L8.82469 34.74L11.046 34.1847C11.1997 34.1465 11.3337 34.0526 11.4221 33.9213C11.5105 33.7899 11.547 33.6304 11.5245 33.4737L24.3182 30.9999C25.5933 30.9939 26.8545 30.735 28.0287 30.2381L28.0245 30.2281C28.9643 30.7859 30.0122 31.1368 31.0984 31.2574L33.6492 31.5408C33.7446 31.5514 33.8413 31.5404 33.932 31.5086C34.0226 31.4768 34.105 31.425 34.1729 31.3571C34.2408 31.2892 34.2926 31.2068 34.3244 31.1162C34.3562 31.0255 34.3672 30.9289 34.3566 30.8334L34.0732 28.2826C33.9491 27.1543 33.5756 26.0677 32.98 25.1015C33.0069 25.097 33.0339 25.0937 33.0608 25.0888C34.6055 24.8136 36.0281 24.0698 37.1357 22.9585L38.2499 21.8443C38.37 21.7241 38.4375 21.5612 38.4375 21.3913C38.4375 21.2214 38.37 21.0585 38.2499 20.9383ZM22.4362 11.8359C21.8949 12.383 21.5037 13.0603 21.3002 13.8026C21.0966 14.5448 21.0877 15.3269 21.2742 16.0736C21.4607 16.8203 21.8364 17.5064 22.365 18.0658C22.8936 18.6251 23.5574 19.0389 24.2924 19.2673C23.8961 19.401 23.4807 19.4692 23.0625 19.4694C22.9675 19.4694 22.8722 19.4647 22.7773 19.4578C22.2277 19.1306 21.6141 18.9252 20.9783 18.8557C20.8202 18.7535 20.6699 18.6398 20.5286 18.5155C21.0055 17.7019 21.2121 16.7579 21.1187 15.8194C21.0253 14.8809 20.6367 13.9962 20.0088 13.2925C20.6047 12.5175 21.472 11.9971 22.4362 11.8359ZM23.7031 27.1569C23.4847 27.1569 23.2679 27.1197 23.062 27.0469C23.3772 26.9358 23.6579 26.7443 23.8764 26.4915C24.0949 26.2386 24.2437 25.9331 24.3079 25.6051C24.3722 25.2771 24.3497 24.9381 24.2428 24.6214C24.1358 24.3048 23.948 24.0216 23.6981 23.7997C23.6885 23.6361 23.6632 23.4739 23.6225 23.3151C23.6493 23.314 23.6761 23.3132 23.7031 23.3132C24.2128 23.3132 24.7017 23.5157 25.0621 23.8761C25.4225 24.2365 25.625 24.7253 25.625 25.235C25.625 25.7448 25.4225 26.2336 25.0621 26.594C24.7017 26.9544 24.2128 27.1569 23.7031 27.1569ZM10.8906 18.1882C10.8906 18.1144 10.8938 18.041 10.8987 17.9679C11.2953 18.4149 11.8357 18.7092 12.4263 18.7997C12.7227 19.4983 13.2576 20.0689 13.9356 20.4097C14.6137 20.7505 15.3908 20.8393 16.1282 20.6604C15.6597 21.0465 15.091 21.2915 14.4885 21.3667C13.8861 21.4418 13.2746 21.3442 12.7255 21.085C12.1765 20.8258 11.7124 20.4159 11.3875 19.903C11.0626 19.3901 10.8903 18.7953 10.8906 18.1882ZM15.375 15.6257C15.6549 15.6257 15.9314 15.6869 16.1852 15.8049C16.439 15.9229 16.664 16.0949 16.8443 16.309C17.0247 16.523 17.1562 16.7738 17.2295 17.0439C17.3029 17.3141 17.3163 17.5969 17.269 17.8728C17.2216 18.1487 17.1145 18.4108 16.9553 18.641C16.796 18.8712 16.5884 19.0638 16.347 19.2054C16.1055 19.347 15.8361 19.4341 15.5574 19.4607C15.2788 19.4873 14.9977 19.4527 14.7339 19.3594C15.0491 19.2483 15.3298 19.0568 15.5483 18.804C15.7668 18.5511 15.9156 18.2456 15.9798 17.9176C16.0441 17.5896 16.0216 17.2506 15.9146 16.9339C15.8077 16.6173 15.6199 16.3341 15.3699 16.1122C15.3604 15.9486 15.3351 15.7864 15.2944 15.6276C15.3212 15.6265 15.348 15.6257 15.375 15.6257ZM14.0937 16.9069C14.2204 16.9069 14.3443 16.9445 14.4497 17.0149C14.555 17.0853 14.6371 17.1853 14.6856 17.3024C14.7341 17.4194 14.7468 17.5483 14.7221 17.6725C14.6973 17.7968 14.6363 17.9109 14.5467 18.0005C14.4571 18.0901 14.343 18.1511 14.2187 18.1759C14.0945 18.2006 13.9656 18.1879 13.8486 18.1394C13.7315 18.0909 13.6315 18.0088 13.5611 17.9035C13.4907 17.7981 13.4531 17.6742 13.4531 17.5475C13.4533 17.3777 13.5209 17.2149 13.641 17.0948C13.7611 16.9747 13.9239 16.9071 14.0937 16.9069ZM12.1797 17.3789C12.0082 17.2816 11.8615 17.146 11.751 16.9827C11.6405 16.8193 11.5693 16.6327 11.5428 16.4372C11.5164 16.2418 11.5354 16.0429 11.5984 15.8561C11.6615 15.6693 11.7668 15.4995 11.9062 15.36C12.0457 15.2206 12.2154 15.1153 12.4023 15.0522C12.5891 14.9892 12.788 14.9702 12.9834 14.9966C13.1788 15.0231 13.3655 15.0943 13.5289 15.2048C13.6922 15.3153 13.8278 15.462 13.9251 15.6335C13.4757 15.6737 13.0548 15.8705 12.7357 16.1895C12.4167 16.5086 12.2199 16.9296 12.1797 17.3789ZM18.6196 23.4976C18.2792 24.0405 18.0599 24.6505 17.9767 25.2858C17.6963 24.9274 17.4956 24.5132 17.3878 24.071C17.28 23.6288 17.2677 23.1687 17.3518 22.7214C17.4358 22.2741 17.6142 21.8499 17.8751 21.4769C18.136 21.104 18.4733 20.7909 18.8647 20.5586C19.2561 20.3263 19.6925 20.1801 20.1449 20.1297C20.5972 20.0793 21.0551 20.126 21.488 20.2664C21.9209 20.4069 22.3189 20.6381 22.6554 20.9445C22.992 21.2509 23.2594 21.6255 23.4397 22.0434C23.269 22.057 23.0996 22.0843 22.9333 22.1251C22.6012 21.7988 22.1863 21.5693 21.7334 21.4612C21.2805 21.3531 20.8067 21.3706 20.363 21.5118C19.9193 21.653 19.5225 21.9125 19.2153 22.2624C18.9081 22.6123 18.7021 23.0394 18.6196 23.4976ZM22.4219 25.8757C22.2952 25.8757 22.1713 25.8381 22.066 25.7677C21.9606 25.6973 21.8785 25.5973 21.83 25.4802C21.7815 25.3631 21.7688 25.2343 21.7936 25.1101C21.8183 24.9858 21.8793 24.8716 21.9689 24.7821C22.0585 24.6925 22.1726 24.6314 22.2969 24.6067C22.4212 24.582 22.55 24.5947 22.667 24.6432C22.7841 24.6917 22.8841 24.7738 22.9545 24.8791C23.0249 24.9845 23.0625 25.1083 23.0625 25.235C23.0623 25.4049 22.9947 25.5677 22.8746 25.6878C22.7545 25.8079 22.5917 25.8755 22.4219 25.8757ZM21.1406 22.6725C21.3668 22.6728 21.5889 22.7329 21.7843 22.8468C21.9798 22.9607 22.1416 23.1243 22.2533 23.321C21.8039 23.3612 21.3829 23.558 21.0638 23.877C20.7448 24.1961 20.548 24.6171 20.5078 25.0664C20.2619 24.9269 20.0691 24.7099 19.9595 24.4493C19.8499 24.1886 19.8296 23.899 19.9019 23.6257C19.9741 23.3523 20.1348 23.1106 20.3589 22.9382C20.583 22.7657 20.8579 22.6723 21.1406 22.6725ZM25.625 18.1882C25.0178 18.1885 24.4231 18.0161 23.9102 17.6912C23.3973 17.3664 22.9873 16.9023 22.7282 16.3532C22.469 15.8042 22.3713 15.1927 22.4465 14.5903C22.5217 13.9878 22.7666 13.4191 23.1528 12.9506C22.9738 13.688 23.0627 14.4651 23.4035 15.1431C23.7443 15.8212 24.3149 16.3561 25.0135 16.6524C25.104 17.2431 25.3982 17.7835 25.8453 18.1801C25.7722 18.185 25.6988 18.1882 25.625 18.1882ZM26.2656 15.6257C26.1389 15.6257 26.0151 15.5881 25.9097 15.5177C25.8044 15.4473 25.7222 15.3473 25.6738 15.2302C25.6253 15.1131 25.6126 14.9843 25.6373 14.8601C25.662 14.7358 25.723 14.6216 25.8126 14.5321C25.9022 14.4425 26.0164 14.3814 26.1406 14.3567C26.2649 14.332 26.3937 14.3447 26.5108 14.3932C26.6278 14.4417 26.7279 14.5238 26.7983 14.6291C26.8687 14.7345 26.9062 14.8583 26.9062 14.985C26.906 15.1549 26.8385 15.3177 26.7184 15.4378C26.5983 15.5579 26.4355 15.6255 26.2656 15.6257ZM27.5469 17.5475C27.3207 17.5473 27.0986 17.4872 26.9032 17.3733C26.7077 17.2594 26.5459 17.0958 26.4342 16.8991C26.8836 16.8589 27.3046 16.6621 27.6236 16.3431C27.9427 16.024 28.1395 15.603 28.1797 15.1536C28.4256 15.2932 28.6184 15.5102 28.728 15.7708C28.8376 16.0315 28.8579 16.321 28.7856 16.5944C28.7133 16.8678 28.5526 17.1095 28.3286 17.2819C28.1045 17.4544 27.8296 17.5477 27.5469 17.5475ZM28.1856 13.7844C28.0268 13.7437 27.8645 13.7184 27.7009 13.7088C27.4791 13.4589 27.1959 13.2711 26.8792 13.1642C26.5626 13.0572 26.2236 13.0347 25.8956 13.099C25.5676 13.1632 25.2621 13.312 25.0092 13.5305C24.7563 13.749 24.5649 14.0297 24.4538 14.3449C24.3604 14.081 24.3258 13.8 24.3524 13.5213C24.379 13.2427 24.4661 12.9732 24.6077 12.7317C24.7493 12.4902 24.9419 12.2826 25.1721 12.1233C25.4023 11.9641 25.6645 11.857 25.9403 11.8096C26.2162 11.7623 26.4991 11.7757 26.7692 11.8491C27.0394 11.9224 27.2902 12.0539 27.5042 12.2343C27.7183 12.4147 27.8903 12.6397 28.0083 12.8935C28.1263 13.1473 28.1875 13.4239 28.1875 13.7038C28.1875 13.7308 28.1867 13.7576 28.1856 13.7844ZM19.8594 16.2663C19.8575 16.7735 19.7358 17.273 19.5043 17.7243C19.2728 18.1755 18.9381 18.5657 18.5272 18.8631C18.5611 18.6397 18.5781 18.4141 18.5781 18.1882C18.5781 18.073 18.5727 17.9573 18.564 17.8429C18.5729 17.7456 18.5781 17.6472 18.5781 17.5475C18.5773 16.9011 18.3812 16.2699 18.0154 15.7368C17.6497 15.2037 17.1314 14.7936 16.5285 14.5602C16.4049 14.0583 16.1945 13.5819 15.9068 13.1526C16.3777 13.0389 16.8683 13.0335 17.3416 13.137C17.8149 13.2404 18.2585 13.4499 18.6391 13.7497C19.0197 14.0495 19.3272 14.4318 19.5386 14.8677C19.75 15.3036 19.8597 15.7818 19.8594 16.2663ZM15.1116 14.3559C14.9409 14.3695 14.7715 14.3968 14.6052 14.4376C14.273 14.1113 13.8582 13.8818 13.4053 13.7737C12.9524 13.6656 12.4786 13.6831 12.0348 13.8243C11.5911 13.9655 11.1943 14.225 10.8871 14.5749C10.58 14.9248 10.374 15.3519 10.2915 15.8101C9.95104 16.353 9.73176 16.963 9.64862 17.5983C9.36821 17.2399 9.16743 16.8257 9.05966 16.3835C8.95189 15.9413 8.93961 15.4812 9.02364 15.0339C9.10766 14.5866 9.28606 14.1624 9.54695 13.7894C9.80783 13.4165 10.1452 13.1034 10.5366 12.8711C10.928 12.6388 11.3644 12.4926 11.8167 12.4422C12.2691 12.3918 12.727 12.4385 13.1599 12.5789C13.5928 12.7194 13.9908 12.9506 14.3273 13.257C14.6639 13.5634 14.9312 13.938 15.1116 14.3559H15.1116ZM14.0937 22.6725C14.8155 22.6731 15.5265 22.4983 16.1657 22.1632C16.0133 22.7374 15.9765 23.3361 16.0574 23.9245C16.1384 24.513 16.3354 25.0796 16.6372 25.5912L13.7002 22.6543C13.83 22.6656 13.961 22.6725 14.0937 22.6725ZM17.3934 28.1595C18.3618 29.1313 19.5259 29.8861 20.8083 30.3736L10.584 32.3506L8.27318 30.0397L13.7734 24.5395L17.3934 28.1595ZM22.4219 29.0788C21.5726 29.0778 20.7585 28.7401 20.158 28.1396C19.5575 27.5391 19.2197 26.7249 19.2187 25.8757C19.2187 25.8019 19.2219 25.7285 19.2269 25.6554C19.6234 26.1024 20.1638 26.3967 20.7545 26.4872C21.0508 27.1858 21.5857 27.7564 22.2638 28.0972C22.9418 28.438 23.7189 28.5268 24.4564 28.3479C23.884 28.821 23.1645 29.0795 22.4219 29.0788ZM26.8921 25.5304C26.901 25.4331 26.9062 25.3347 26.9062 25.235C26.9054 24.5886 26.7093 23.9574 26.3435 23.4243C25.9778 22.8912 25.4595 22.4811 24.8566 22.2477C24.733 21.7458 24.5226 21.2694 24.2349 20.8401C24.9564 20.6658 25.7161 20.7478 26.3839 21.0718C27.0518 21.3959 27.5862 21.942 27.8958 22.6167C28.2054 23.2913 28.2709 24.0526 28.0811 24.7702C27.8913 25.4879 27.458 26.1172 26.8554 26.5506C26.8893 26.3272 26.9063 26.1016 26.9062 25.8757C26.9062 25.7605 26.9008 25.6448 26.8921 25.5304ZM28.1875 20.11C27.4725 20.1101 26.778 19.8707 26.2148 19.4302C26.8502 19.3471 27.4601 19.1278 28.003 18.7873C28.4613 18.7048 28.8883 18.4989 29.2382 18.1917C29.5882 17.8845 29.8477 17.4877 29.9889 17.0439C30.13 16.6002 30.1475 16.1264 30.0395 15.6735C29.9314 15.2206 29.7018 14.8057 29.3755 14.4736C29.4164 14.3073 29.4437 14.1379 29.4573 13.9672C30.1338 14.2592 30.689 14.7757 31.0291 15.4294C31.3692 16.0831 31.4735 16.8341 31.3243 17.5558C31.1751 18.2774 30.7817 18.9256 30.2102 19.3909C29.6388 19.8562 28.9244 20.1102 28.1875 20.11ZM30.75 12.4225C30.7497 12.675 30.7197 12.9266 30.6606 13.172C30.2312 12.8843 29.7549 12.6739 29.253 12.5503C29.0196 11.9474 28.6095 11.4291 28.0764 11.0634C27.5433 10.6976 26.9121 10.5015 26.2656 10.5007C26.1659 10.5007 26.0675 10.5059 25.9701 10.5148C25.8555 10.5061 25.7399 10.5007 25.625 10.5007C25.399 10.5007 25.1734 10.5177 24.95 10.5515C25.3456 10.0015 25.9055 9.59115 26.5491 9.37955C27.1927 9.16795 27.8869 9.16601 28.5317 9.37401C29.1764 9.58202 29.7386 9.98923 30.1372 10.537C30.5359 11.0849 30.7504 11.745 30.75 12.4225ZM20.6782 3.93622L21.7812 2.55741L22.8843 3.93622C23.5111 4.72127 23.9449 5.64251 24.1508 6.62581C24.3566 7.60911 24.3287 8.627 24.0694 9.59755C23.8386 9.87987 23.6432 10.1894 23.4875 10.5191C23.3462 10.5075 23.2043 10.5007 23.0625 10.5007C22.8483 10.5008 22.6343 10.5145 22.4219 10.5417V6.0163H21.1406V10.8777C20.8308 11.0035 20.534 11.1591 20.2543 11.3423C19.5449 10.2174 19.2044 8.89907 19.2804 7.57136C19.3564 6.24364 19.8451 4.97279 20.6782 3.93622ZM12.8125 6.0163H13.7476C15.313 6.01363 16.8246 6.58707 17.9944 7.62732C17.9493 8.73728 18.1465 9.84374 18.5721 10.8699L15.7048 8.00257L14.7987 8.90854L17.8286 11.9384C16.9322 11.6947 15.9822 11.7365 15.1106 12.0578C14.3931 11.4549 13.8157 10.7027 13.4188 9.85378C13.0219 9.00482 12.815 8.07948 12.8125 7.14232V6.0163ZM11.8585 9.35051C12.0517 9.99011 12.3266 10.6021 12.6765 11.1713C11.9034 11.0808 11.1202 11.1957 10.4057 11.5044C10.7768 10.7163 11.2668 9.98985 11.8585 9.35051ZM9.11854 18.9098C9.60309 20.0398 10.2991 21.0667 11.1692 21.9353L12.8674 23.6335L7.36718 29.1337L6.97821 28.7448L8.91826 18.7116C8.98278 18.7796 9.04954 18.8457 9.11854 18.9098ZM2.45919 34.0108L3.93079 33.275L3.95274 33.2969L1.58677 37.0149C1.43513 36.7632 1.33721 36.4829 1.29916 36.1915C1.26112 35.9002 1.28379 35.6041 1.36573 35.3219C1.44767 35.0398 1.58712 34.7776 1.7753 34.552C1.96349 34.3263 2.19633 34.142 2.45919 34.0108ZM5.31807 36.8696C5.07425 37.3578 4.6523 37.7337 4.13933 37.9199C3.62635 38.106 3.0615 38.0881 2.56136 37.8698L4.88079 34.225L6.05383 35.398L5.31807 36.8696ZM8.17273 33.5823C8.06818 33.6084 7.97191 33.6605 7.89283 33.7338C7.81376 33.807 7.75443 33.899 7.72034 34.0012L7.40753 34.9397L4.38904 31.9213L5.32761 31.6084C5.42984 31.5743 5.52182 31.515 5.59504 31.4359C5.66825 31.3569 5.72033 31.2606 5.74646 31.1561L6.11267 29.6912L9.6376 33.2161L8.17273 33.5823ZM24.7542 29.7043C25.2529 29.3989 25.6877 28.9997 26.0343 28.5288C26.2703 28.8129 26.5264 29.0796 26.8008 29.3268C26.137 29.5375 25.4495 29.6643 24.7542 29.7043ZM31.2399 29.9839C29.6657 29.809 28.2121 29.057 27.16 27.8731C27.7062 27.5667 28.1828 27.1501 28.5596 26.6498L30.096 28.1861L31.002 27.2802L29.1986 25.4767C29.2728 25.2729 29.3321 25.064 29.3759 24.8516C30.0625 25.0702 30.7767 25.1905 31.4971 25.2088C32.22 26.1396 32.6709 27.2525 32.7998 28.424L32.9948 30.1789L31.2399 29.9839ZM36.2296 22.0526C35.3569 22.9187 34.2546 23.517 33.0528 23.777C31.8511 24.0369 30.6 23.9476 29.4474 23.5196C29.3977 23.0035 29.2582 22.5 29.0352 22.0319H33.3125V20.7507H30.4945C31.2734 20.2809 31.8922 19.5868 32.2698 18.7592C33.7167 18.9173 35.0662 19.5651 36.0947 20.5951L36.8909 21.3913L36.2296 22.0526Z" fill="#872CB3"/>
</svg>
