<svg width="212" height="41" viewBox="0 0 212 41" fill="none" xmlns="http://www.w3.org/2000/svg">
<path d="M49.162 8.2H53.614C54.678 8.2 55.616 8.40533 56.428 8.816C57.2493 9.21733 57.884 9.78667 58.332 10.524C58.7893 11.2613 59.018 12.12 59.018 13.1C59.018 14.08 58.7893 14.9387 58.332 15.676C57.884 16.4133 57.2493 16.9873 56.428 17.398C55.616 17.7993 54.678 18 53.614 18H49.162V8.2ZM53.502 16.138C54.482 16.138 55.2613 15.8673 55.84 15.326C56.428 14.7753 56.722 14.0333 56.722 13.1C56.722 12.1667 56.428 11.4293 55.84 10.888C55.2613 10.3373 54.482 10.062 53.502 10.062H51.43V16.138H53.502ZM65.4744 18.168C64.4571 18.168 63.5377 17.9487 62.7164 17.51C61.9044 17.0713 61.2651 16.4693 60.7984 15.704C60.3411 14.9293 60.1124 14.0613 60.1124 13.1C60.1124 12.1387 60.3411 11.2753 60.7984 10.51C61.2651 9.73533 61.9044 9.12867 62.7164 8.69C63.5377 8.25133 64.4571 8.032 65.4744 8.032C66.4917 8.032 67.4064 8.25133 68.2184 8.69C69.0304 9.12867 69.6697 9.73533 70.1364 10.51C70.6031 11.2753 70.8364 12.1387 70.8364 13.1C70.8364 14.0613 70.6031 14.9293 70.1364 15.704C69.6697 16.4693 69.0304 17.0713 68.2184 17.51C67.4064 17.9487 66.4917 18.168 65.4744 18.168ZM65.4744 16.236C66.0531 16.236 66.5757 16.1053 67.0424 15.844C67.5091 15.5733 67.8731 15.2 68.1344 14.724C68.4051 14.248 68.5404 13.7067 68.5404 13.1C68.5404 12.4933 68.4051 11.952 68.1344 11.476C67.8731 11 67.5091 10.6313 67.0424 10.37C66.5757 10.0993 66.0531 9.964 65.4744 9.964C64.8957 9.964 64.3731 10.0993 63.9064 10.37C63.4397 10.6313 63.0711 11 62.8004 11.476C62.5391 11.952 62.4084 12.4933 62.4084 13.1C62.4084 13.7067 62.5391 14.248 62.8004 14.724C63.0711 15.2 63.4397 15.5733 63.9064 15.844C64.3731 16.1053 64.8957 16.236 65.4744 16.236ZM81.5289 8.2V18H79.6669L74.7809 12.05V18H72.5409V8.2H74.4169L79.2889 14.15V8.2H81.5289ZM95.0084 12.904C95.5684 13.0813 96.0071 13.38 96.3244 13.8C96.6417 14.2107 96.8004 14.7193 96.8004 15.326C96.8004 16.1847 96.4644 16.8473 95.7924 17.314C95.1297 17.7713 94.1591 18 92.8804 18H87.8124V8.2H92.6004C93.7951 8.2 94.7097 8.42867 95.3444 8.886C95.9884 9.34333 96.3104 9.964 96.3104 10.748C96.3104 11.224 96.1937 11.6487 95.9604 12.022C95.7364 12.3953 95.4191 12.6893 95.0084 12.904ZM90.0664 9.908V12.218H92.3204C92.8804 12.218 93.3051 12.12 93.5944 11.924C93.8837 11.728 94.0284 11.4387 94.0284 11.056C94.0284 10.6733 93.8837 10.3887 93.5944 10.202C93.3051 10.006 92.8804 9.908 92.3204 9.908H90.0664ZM92.7124 16.292C93.3097 16.292 93.7577 16.194 94.0564 15.998C94.3644 15.802 94.5184 15.4987 94.5184 15.088C94.5184 14.276 93.9164 13.87 92.7124 13.87H90.0664V16.292H92.7124ZM102.871 18.168C101.471 18.168 100.379 17.7807 99.5955 17.006C98.8208 16.2313 98.4335 15.1253 98.4335 13.688V8.2H100.701V13.604C100.701 15.3587 101.429 16.236 102.885 16.236C103.595 16.236 104.136 16.026 104.509 15.606C104.883 15.1767 105.069 14.5093 105.069 13.604V8.2H107.309V13.688C107.309 15.1253 106.917 16.2313 106.133 17.006C105.359 17.7807 104.271 18.168 102.871 18.168ZM111.417 10.048H108.281V8.2H116.821V10.048H113.685V18H111.417V10.048ZM122.65 18.168C121.633 18.168 120.714 17.9487 119.892 17.51C119.08 17.0713 118.441 16.4693 117.974 15.704C117.517 14.9293 117.288 14.0613 117.288 13.1C117.288 12.1387 117.517 11.2753 117.974 10.51C118.441 9.73533 119.08 9.12867 119.892 8.69C120.714 8.25133 121.633 8.032 122.65 8.032C123.668 8.032 124.582 8.25133 125.394 8.69C126.206 9.12867 126.846 9.73533 127.312 10.51C127.779 11.2753 128.012 12.1387 128.012 13.1C128.012 14.0613 127.779 14.9293 127.312 15.704C126.846 16.4693 126.206 17.0713 125.394 17.51C124.582 17.9487 123.668 18.168 122.65 18.168ZM122.65 16.236C123.229 16.236 123.752 16.1053 124.218 15.844C124.685 15.5733 125.049 15.2 125.31 14.724C125.581 14.248 125.716 13.7067 125.716 13.1C125.716 12.4933 125.581 11.952 125.31 11.476C125.049 11 124.685 10.6313 124.218 10.37C123.752 10.0993 123.229 9.964 122.65 9.964C122.072 9.964 121.549 10.0993 121.082 10.37C120.616 10.6313 120.247 11 119.976 11.476C119.715 11.952 119.584 12.4933 119.584 13.1C119.584 13.7067 119.715 14.248 119.976 14.724C120.247 15.2 120.616 15.5733 121.082 15.844C121.549 16.1053 122.072 16.236 122.65 16.236ZM138.705 8.2V18H136.843L131.957 12.05V18H129.717V8.2H131.593L136.465 14.15V8.2H138.705Z" fill="white"/>
<path d="M56.371 33.296V35.727H55.612V34H48.891L48.88 35.727H48.121L48.132 33.296H48.517C49.023 33.2667 49.375 32.867 49.573 32.097C49.771 31.3197 49.892 30.2197 49.936 28.797L50.024 26.3H55.216V33.296H56.371ZM50.662 28.874C50.6253 30.0473 50.5337 31.0153 50.387 31.778C50.2477 32.5333 50.0093 33.0393 49.672 33.296H54.413V27.004H50.728L50.662 28.874ZM60.0703 34.055C59.5129 34.055 59.0106 33.9303 58.5633 33.681C58.1159 33.4243 57.7639 33.0723 57.5073 32.625C57.2506 32.1777 57.1223 31.6717 57.1223 31.107C57.1223 30.5423 57.2506 30.0363 57.5073 29.589C57.7639 29.1417 58.1159 28.7933 58.5633 28.544C59.0106 28.2947 59.5129 28.17 60.0703 28.17C60.6276 28.17 61.1299 28.2947 61.5773 28.544C62.0246 28.7933 62.3729 29.1417 62.6223 29.589C62.8789 30.0363 63.0073 30.5423 63.0073 31.107C63.0073 31.6717 62.8789 32.1777 62.6223 32.625C62.3729 33.0723 62.0246 33.4243 61.5773 33.681C61.1299 33.9303 60.6276 34.055 60.0703 34.055ZM60.0703 33.362C60.4809 33.362 60.8476 33.2703 61.1703 33.087C61.5003 32.8963 61.7569 32.6287 61.9403 32.284C62.1236 31.9393 62.2153 31.547 62.2153 31.107C62.2153 30.667 62.1236 30.2747 61.9403 29.93C61.7569 29.5853 61.5003 29.3213 61.1703 29.138C60.8476 28.9473 60.4809 28.852 60.0703 28.852C59.6596 28.852 59.2893 28.9473 58.9593 29.138C58.6366 29.3213 58.3799 29.5853 58.1893 29.93C58.0059 30.2747 57.9143 30.667 57.9143 31.107C57.9143 31.547 58.0059 31.9393 58.1893 32.284C58.3799 32.6287 58.6366 32.8963 58.9593 33.087C59.2893 33.2703 59.6596 33.362 60.0703 33.362ZM67.0964 34.055C66.5244 34.055 66.0111 33.9303 65.5564 33.681C65.1091 33.4317 64.7571 33.0833 64.5004 32.636C64.2438 32.1813 64.1154 31.6717 64.1154 31.107C64.1154 30.5423 64.2438 30.0363 64.5004 29.589C64.7571 29.1417 65.1091 28.7933 65.5564 28.544C66.0111 28.2947 66.5244 28.17 67.0964 28.17C67.5951 28.17 68.0388 28.269 68.4274 28.467C68.8234 28.6577 69.1351 28.94 69.3624 29.314L68.7794 29.71C68.5888 29.424 68.3468 29.2113 68.0534 29.072C67.7601 28.9253 67.4411 28.852 67.0964 28.852C66.6784 28.852 66.3008 28.9473 65.9634 29.138C65.6334 29.3213 65.3731 29.5853 65.1824 29.93C64.9991 30.2747 64.9074 30.667 64.9074 31.107C64.9074 31.5543 64.9991 31.9503 65.1824 32.295C65.3731 32.6323 65.6334 32.8963 65.9634 33.087C66.3008 33.2703 66.6784 33.362 67.0964 33.362C67.4411 33.362 67.7601 33.2923 68.0534 33.153C68.3468 33.0137 68.5888 32.801 68.7794 32.515L69.3624 32.911C69.1351 33.285 68.8234 33.571 68.4274 33.769C68.0314 33.9597 67.5878 34.055 67.0964 34.055ZM74.8373 28.907H72.6483V34H71.8673V28.907H69.6783V28.214H74.8373V28.907ZM77.9575 28.17C78.7128 28.17 79.2921 28.3607 79.6955 28.742C80.0988 29.116 80.3005 29.6733 80.3005 30.414V34H79.5525V33.098C79.3765 33.3987 79.1161 33.6333 78.7715 33.802C78.4341 33.9707 78.0308 34.055 77.5615 34.055C76.9161 34.055 76.4028 33.901 76.0215 33.593C75.6401 33.285 75.4495 32.878 75.4495 32.372C75.4495 31.8807 75.6255 31.4847 75.9775 31.184C76.3368 30.8833 76.9051 30.733 77.6825 30.733H79.5195V30.381C79.5195 29.8823 79.3801 29.5047 79.1015 29.248C78.8228 28.984 78.4158 28.852 77.8805 28.852C77.5138 28.852 77.1618 28.9143 76.8245 29.039C76.4871 29.1563 76.1975 29.3213 75.9555 29.534L75.6035 28.951C75.8968 28.7017 76.2488 28.511 76.6595 28.379C77.0701 28.2397 77.5028 28.17 77.9575 28.17ZM77.6825 33.439C78.1225 33.439 78.5001 33.34 78.8155 33.142C79.1308 32.9367 79.3655 32.6433 79.5195 32.262V31.316H77.7045C76.7145 31.316 76.2195 31.6607 76.2195 32.35C76.2195 32.6873 76.3478 32.955 76.6045 33.153C76.8611 33.3437 77.2205 33.439 77.6825 33.439ZM86.0646 31.008C86.8492 31.1913 87.2416 31.6643 87.2416 32.427C87.2416 32.933 87.0546 33.3217 86.6806 33.593C86.3066 33.8643 85.7492 34 85.0086 34H82.3796V28.214H84.9316C85.5916 28.214 86.1086 28.3423 86.4826 28.599C86.8566 28.8557 87.0436 29.2223 87.0436 29.699C87.0436 30.0143 86.9556 30.2857 86.7796 30.513C86.6109 30.733 86.3726 30.898 86.0646 31.008ZM83.1386 30.788H84.8766C85.3239 30.788 85.6649 30.7037 85.8996 30.535C86.1416 30.3663 86.2626 30.1207 86.2626 29.798C86.2626 29.4753 86.1416 29.2333 85.8996 29.072C85.6649 28.9107 85.3239 28.83 84.8766 28.83H83.1386V30.788ZM84.9756 33.384C85.4742 33.384 85.8482 33.3033 86.0976 33.142C86.3469 32.9807 86.4716 32.7277 86.4716 32.383C86.4716 32.0383 86.3579 31.7853 86.1306 31.624C85.9032 31.4553 85.5439 31.371 85.0526 31.371H83.1386V33.384H84.9756ZM91.1729 31.426H89.8529V34H89.0719V28.214H89.8529V30.755H91.1839L93.2189 28.214H94.0659L91.7889 31.019L94.2309 34H93.3069L91.1729 31.426ZM97.3471 28.17C98.1025 28.17 98.6818 28.3607 99.0851 28.742C99.4885 29.116 99.6901 29.6733 99.6901 30.414V34H98.9421V33.098C98.7661 33.3987 98.5058 33.6333 98.1611 33.802C97.8238 33.9707 97.4205 34.055 96.9511 34.055C96.3058 34.055 95.7925 33.901 95.4111 33.593C95.0298 33.285 94.8391 32.878 94.8391 32.372C94.8391 31.8807 95.0151 31.4847 95.3671 31.184C95.7265 30.8833 96.2948 30.733 97.0721 30.733H98.9091V30.381C98.9091 29.8823 98.7698 29.5047 98.4911 29.248C98.2125 28.984 97.8055 28.852 97.2701 28.852C96.9035 28.852 96.5515 28.9143 96.2141 29.039C95.8768 29.1563 95.5871 29.3213 95.3451 29.534L94.9931 28.951C95.2865 28.7017 95.6385 28.511 96.0491 28.379C96.4598 28.2397 96.8925 28.17 97.3471 28.17ZM97.0721 33.439C97.5121 33.439 97.8898 33.34 98.2051 33.142C98.5205 32.9367 98.7551 32.6433 98.9091 32.262V31.316H97.0941C96.1041 31.316 95.6091 31.6607 95.6091 32.35C95.6091 32.6873 95.7375 32.955 95.9941 33.153C96.2508 33.3437 96.6101 33.439 97.0721 33.439ZM110.676 33.318V35.452H109.939V34H104.648V28.214H105.429V33.318H108.96V28.214H109.741V33.318H110.676ZM115.853 31.008C116.637 31.1913 117.03 31.6643 117.03 32.427C117.03 32.933 116.843 33.3217 116.469 33.593C116.095 33.8643 115.537 34 114.797 34H112.168V28.214H114.72C115.38 28.214 115.897 28.3423 116.271 28.599C116.645 28.8557 116.832 29.2223 116.832 29.699C116.832 30.0143 116.744 30.2857 116.568 30.513C116.399 30.733 116.161 30.898 115.853 31.008ZM112.927 30.788H114.665C115.112 30.788 115.453 30.7037 115.688 30.535C115.93 30.3663 116.051 30.1207 116.051 29.798C116.051 29.4753 115.93 29.2333 115.688 29.072C115.453 28.9107 115.112 28.83 114.665 28.83H112.927V30.788ZM114.764 33.384C115.262 33.384 115.636 33.3033 115.886 33.142C116.135 32.9807 116.26 32.7277 116.26 32.383C116.26 32.0383 116.146 31.7853 115.919 31.624C115.691 31.4553 115.332 31.371 114.841 31.371H112.927V33.384H114.764ZM123.92 31.349H119.08C119.124 31.9503 119.355 32.438 119.773 32.812C120.191 33.1787 120.719 33.362 121.357 33.362C121.716 33.362 122.046 33.2997 122.347 33.175C122.648 33.043 122.908 32.8523 123.128 32.603L123.568 33.109C123.311 33.417 122.989 33.6517 122.6 33.813C122.219 33.9743 121.797 34.055 121.335 34.055C120.741 34.055 120.213 33.9303 119.751 33.681C119.296 33.4243 118.941 33.0723 118.684 32.625C118.427 32.1777 118.299 31.6717 118.299 31.107C118.299 30.5423 118.42 30.0363 118.662 29.589C118.911 29.1417 119.249 28.7933 119.674 28.544C120.107 28.2947 120.591 28.17 121.126 28.17C121.661 28.17 122.142 28.2947 122.567 28.544C122.992 28.7933 123.326 29.1417 123.568 29.589C123.81 30.029 123.931 30.535 123.931 31.107L123.92 31.349ZM121.126 28.841C120.569 28.841 120.099 29.0207 119.718 29.38C119.344 29.732 119.131 30.194 119.08 30.766H123.183C123.132 30.194 122.915 29.732 122.534 29.38C122.16 29.0207 121.691 28.841 121.126 28.841ZM129.472 28.907H127.283V34H126.502V28.907H124.313V28.214H129.472V28.907ZM132.72 34.055C132.162 34.055 131.66 33.9303 131.213 33.681C130.765 33.4243 130.413 33.0723 130.157 32.625C129.9 32.1777 129.772 31.6717 129.772 31.107C129.772 30.5423 129.9 30.0363 130.157 29.589C130.413 29.1417 130.765 28.7933 131.213 28.544C131.66 28.2947 132.162 28.17 132.72 28.17C133.277 28.17 133.779 28.2947 134.227 28.544C134.674 28.7933 135.022 29.1417 135.272 29.589C135.528 30.0363 135.657 30.5423 135.657 31.107C135.657 31.6717 135.528 32.1777 135.272 32.625C135.022 33.0723 134.674 33.4243 134.227 33.681C133.779 33.9303 133.277 34.055 132.72 34.055ZM132.72 33.362C133.13 33.362 133.497 33.2703 133.82 33.087C134.15 32.8963 134.406 32.6287 134.59 32.284C134.773 31.9393 134.865 31.547 134.865 31.107C134.865 30.667 134.773 30.2747 134.59 29.93C134.406 29.5853 134.15 29.3213 133.82 29.138C133.497 28.9473 133.13 28.852 132.72 28.852C132.309 28.852 131.939 28.9473 131.609 29.138C131.286 29.3213 131.029 29.5853 130.839 29.93C130.655 30.2747 130.564 30.667 130.564 31.107C130.564 31.547 130.655 31.9393 130.839 32.284C131.029 32.6287 131.286 32.8963 131.609 33.087C131.939 33.2703 132.309 33.362 132.72 33.362ZM141.011 31.008C141.796 31.1913 142.188 31.6643 142.188 32.427C142.188 32.933 142.001 33.3217 141.627 33.593C141.253 33.8643 140.696 34 139.955 34H137.326V28.214H139.878C140.538 28.214 141.055 28.3423 141.429 28.599C141.803 28.8557 141.99 29.2223 141.99 29.699C141.99 30.0143 141.902 30.2857 141.726 30.513C141.557 30.733 141.319 30.898 141.011 31.008ZM138.085 30.788H139.823C140.27 30.788 140.611 30.7037 140.846 30.535C141.088 30.3663 141.209 30.1207 141.209 29.798C141.209 29.4753 141.088 29.2333 140.846 29.072C140.611 28.9107 140.27 28.83 139.823 28.83H138.085V30.788ZM139.922 33.384C140.421 33.384 140.795 33.3033 141.044 33.142C141.293 32.9807 141.418 32.7277 141.418 32.383C141.418 32.0383 141.304 31.7853 141.077 31.624C140.85 31.4553 140.49 31.371 139.999 31.371H138.085V33.384H139.922ZM146.897 28.214H147.678V32.812L151.539 28.214H152.232V34H151.451V29.402L147.601 34H146.897V28.214ZM162.541 28.214V34H161.76V28.907H158.13V34H157.349V28.214H162.541ZM167.148 34.055C166.591 34.055 166.089 33.9303 165.641 33.681C165.194 33.4243 164.842 33.0723 164.585 32.625C164.329 32.1777 164.2 31.6717 164.2 31.107C164.2 30.5423 164.329 30.0363 164.585 29.589C164.842 29.1417 165.194 28.7933 165.641 28.544C166.089 28.2947 166.591 28.17 167.148 28.17C167.706 28.17 168.208 28.2947 168.655 28.544C169.103 28.7933 169.451 29.1417 169.7 29.589C169.957 30.0363 170.085 30.5423 170.085 31.107C170.085 31.6717 169.957 32.1777 169.7 32.625C169.451 33.0723 169.103 33.4243 168.655 33.681C168.208 33.9303 167.706 34.055 167.148 34.055ZM167.148 33.362C167.559 33.362 167.926 33.2703 168.248 33.087C168.578 32.8963 168.835 32.6287 169.018 32.284C169.202 31.9393 169.293 31.547 169.293 31.107C169.293 30.667 169.202 30.2747 169.018 29.93C168.835 29.5853 168.578 29.3213 168.248 29.138C167.926 28.9473 167.559 28.852 167.148 28.852C166.738 28.852 166.367 28.9473 166.037 29.138C165.715 29.3213 165.458 29.5853 165.267 29.93C165.084 30.2747 164.992 30.667 164.992 31.107C164.992 31.547 165.084 31.9393 165.267 32.284C165.458 32.6287 165.715 32.8963 166.037 33.087C166.367 33.2703 166.738 33.362 167.148 33.362ZM177.365 33.318V35.397H176.628V34H171.447V35.397H170.71V33.318H171.04C171.429 33.296 171.693 33.01 171.832 32.46C171.972 31.91 172.067 31.14 172.118 30.15L172.195 28.214H176.463V33.318H177.365ZM172.833 30.194C172.797 31.0153 172.727 31.6937 172.624 32.229C172.522 32.757 172.338 33.12 172.074 33.318H175.682V28.907H172.899L172.833 30.194ZM180.878 28.17C181.634 28.17 182.213 28.3607 182.616 28.742C183.02 29.116 183.221 29.6733 183.221 30.414V34H182.473V33.098C182.297 33.3987 182.037 33.6333 181.692 33.802C181.355 33.9707 180.952 34.055 180.482 34.055C179.837 34.055 179.324 33.901 178.942 33.593C178.561 33.285 178.37 32.878 178.37 32.372C178.37 31.8807 178.546 31.4847 178.898 31.184C179.258 30.8833 179.826 30.733 180.603 30.733H182.44V30.381C182.44 29.8823 182.301 29.5047 182.022 29.248C181.744 28.984 181.337 28.852 180.801 28.852C180.435 28.852 180.083 28.9143 179.745 29.039C179.408 29.1563 179.118 29.3213 178.876 29.534L178.524 28.951C178.818 28.7017 179.17 28.511 179.58 28.379C179.991 28.2397 180.424 28.17 180.878 28.17ZM180.603 33.439C181.043 33.439 181.421 33.34 181.736 33.142C182.052 32.9367 182.286 32.6433 182.44 32.262V31.316H180.625C179.635 31.316 179.14 31.6607 179.14 32.35C179.14 32.6873 179.269 32.955 179.525 33.153C179.782 33.3437 180.141 33.439 180.603 33.439ZM188.281 28.17C188.824 28.17 189.315 28.2947 189.755 28.544C190.195 28.786 190.54 29.1307 190.789 29.578C191.039 30.0253 191.163 30.535 191.163 31.107C191.163 31.6863 191.039 32.1997 190.789 32.647C190.54 33.0943 190.195 33.4427 189.755 33.692C189.323 33.934 188.831 34.055 188.281 34.055C187.812 34.055 187.387 33.9597 187.005 33.769C186.631 33.571 186.323 33.285 186.081 32.911V36.134H185.3V28.214H186.048V29.358C186.283 28.9767 186.591 28.6833 186.972 28.478C187.361 28.2727 187.797 28.17 188.281 28.17ZM188.226 33.362C188.63 33.362 188.996 33.2703 189.326 33.087C189.656 32.8963 189.913 32.6287 190.096 32.284C190.287 31.9393 190.382 31.547 190.382 31.107C190.382 30.667 190.287 30.2783 190.096 29.941C189.913 29.5963 189.656 29.3287 189.326 29.138C188.996 28.9473 188.63 28.852 188.226 28.852C187.816 28.852 187.445 28.9473 187.115 29.138C186.793 29.3287 186.536 29.5963 186.345 29.941C186.162 30.2783 186.07 30.667 186.07 31.107C186.07 31.547 186.162 31.9393 186.345 32.284C186.536 32.6287 186.793 32.8963 187.115 33.087C187.445 33.2703 187.816 33.362 188.226 33.362ZM194.942 31.426H193.622V34H192.841V28.214H193.622V30.755H194.953L196.988 28.214H197.835L195.558 31.019L198 34H197.076L194.942 31.426ZM201.416 34.055C200.859 34.055 200.356 33.9303 199.909 33.681C199.462 33.4243 199.11 33.0723 198.853 32.625C198.596 32.1777 198.468 31.6717 198.468 31.107C198.468 30.5423 198.596 30.0363 198.853 29.589C199.11 29.1417 199.462 28.7933 199.909 28.544C200.356 28.2947 200.859 28.17 201.416 28.17C201.973 28.17 202.476 28.2947 202.923 28.544C203.37 28.7933 203.719 29.1417 203.968 29.589C204.225 30.0363 204.353 30.5423 204.353 31.107C204.353 31.6717 204.225 32.1777 203.968 32.625C203.719 33.0723 203.37 33.4243 202.923 33.681C202.476 33.9303 201.973 34.055 201.416 34.055ZM201.416 33.362C201.827 33.362 202.193 33.2703 202.516 33.087C202.846 32.8963 203.103 32.6287 203.286 32.284C203.469 31.9393 203.561 31.547 203.561 31.107C203.561 30.667 203.469 30.2747 203.286 29.93C203.103 29.5853 202.846 29.3213 202.516 29.138C202.193 28.9473 201.827 28.852 201.416 28.852C201.005 28.852 200.635 28.9473 200.305 29.138C199.982 29.3213 199.726 29.5853 199.535 29.93C199.352 30.2747 199.26 30.667 199.26 31.107C199.26 31.547 199.352 31.9393 199.535 32.284C199.726 32.6287 199.982 32.8963 200.305 33.087C200.635 33.2703 201.005 33.362 201.416 33.362ZM209.707 31.008C210.492 31.1913 210.884 31.6643 210.884 32.427C210.884 32.933 210.697 33.3217 210.323 33.593C209.949 33.8643 209.392 34 208.651 34H206.022V28.214H208.574C209.234 28.214 209.751 28.3423 210.125 28.599C210.499 28.8557 210.686 29.2223 210.686 29.699C210.686 30.0143 210.598 30.2857 210.422 30.513C210.253 30.733 210.015 30.898 209.707 31.008ZM206.781 30.788H208.519C208.966 30.788 209.307 30.7037 209.542 30.535C209.784 30.3663 209.905 30.1207 209.905 29.798C209.905 29.4753 209.784 29.2333 209.542 29.072C209.307 28.9107 208.966 28.83 208.519 28.83H206.781V30.788ZM208.618 33.384C209.117 33.384 209.491 33.3033 209.74 33.142C209.989 32.9807 210.114 32.7277 210.114 32.383C210.114 32.0383 210 31.7853 209.773 31.624C209.546 31.4553 209.186 31.371 208.695 31.371H206.781V33.384H208.618Z" fill="white"/>
<path d="M38.2499 20.9384L37.0007 19.6892C35.9663 18.6532 34.6568 17.9351 33.2271 17.62C33.0603 17.2135 32.8662 16.8187 32.6461 16.4384C32.5546 15.5925 32.2246 14.79 31.6944 14.1244C31.9745 13.4435 32.0824 12.704 32.0088 11.9714C31.9351 11.2389 31.6821 10.5357 31.2721 9.92414C30.862 9.31259 30.3077 8.81147 29.6579 8.4651C29.0082 8.11873 28.2832 7.93778 27.5469 7.93823C26.8547 7.9388 26.1723 8.10082 25.5537 8.41141C25.6702 6.50688 25.0754 4.62692 23.8848 3.13589L22.2815 1.13179C22.2215 1.05677 22.1454 0.996203 22.0588 0.954585C21.9722 0.912966 21.8773 0.891357 21.7813 0.891357C21.6852 0.891357 21.5903 0.912966 21.5037 0.954585C21.4171 0.996203 21.341 1.05677 21.281 1.13179L19.6777 3.13589C19.1375 3.80994 18.7144 4.56991 18.4259 5.3841C17.9362 5.36449 17.4457 5.38148 16.9585 5.43495C15.9514 4.97236 14.8559 4.7336 13.7476 4.73511H12.1719C12.002 4.73511 11.839 4.8026 11.7189 4.92274C11.5988 5.04288 11.5313 5.20583 11.5313 5.37573V7.14238C11.5313 7.37778 11.5422 7.61189 11.5642 7.8447C10.0725 9.18134 9.02856 10.9449 8.57431 12.8957L8.61116 12.9042C8.16223 13.4897 7.86505 14.1772 7.74607 14.9054C7.62709 15.6336 7.69001 16.3799 7.92923 17.0779L5.85509 27.8044C5.69837 27.7819 5.53887 27.8184 5.40752 27.9068C5.27616 27.9952 5.18231 28.1292 5.14417 28.2828L4.58878 30.5042L3.00051 31.0336C2.89692 31.0682 2.80388 31.1286 2.73022 31.2092C2.65655 31.2898 2.60472 31.3879 2.57963 31.4942C2.55454 31.6005 2.55703 31.7114 2.58687 31.8164C2.61671 31.9215 2.6729 32.0171 2.75011 32.0943L2.97579 32.32L1.88614 32.8649C1.40257 33.1067 0.983373 33.4599 0.663105 33.8955C0.342838 34.3311 0.130664 34.8365 0.0440675 35.3702C-0.0425287 35.9039 -0.00106778 36.4505 0.165034 36.965C0.331135 37.4795 0.617122 37.9472 0.999426 38.3295C1.38173 38.7118 1.84941 38.9978 2.36392 39.1639C2.87843 39.33 3.42505 39.3714 3.95872 39.2848C4.49239 39.1982 4.99785 38.986 5.43343 38.6657C5.86901 38.3455 6.22226 37.9263 6.46404 37.4427L7.00883 36.3531L7.23448 36.5787C7.3117 36.6559 7.40738 36.7121 7.51242 36.742C7.61747 36.7718 7.7284 36.7743 7.83469 36.7492C7.94097 36.7241 8.03908 36.6723 8.11969 36.5986C8.2003 36.525 8.26075 36.4319 8.29528 36.3283L8.82471 34.74L11.046 34.1847C11.1997 34.1465 11.3337 34.0527 11.4221 33.9213C11.5105 33.79 11.547 33.6305 11.5245 33.4738L24.3182 30.9999C25.5933 30.994 26.8545 30.7351 28.0288 30.2382L28.0245 30.2281C28.9643 30.7859 30.0122 31.1368 31.0984 31.2574L33.6492 31.5409C33.7447 31.5515 33.8413 31.5405 33.932 31.5087C34.0226 31.4769 34.105 31.4251 34.1729 31.3572C34.2409 31.2892 34.2927 31.2069 34.3245 31.1162C34.3563 31.0256 34.3673 30.9289 34.3567 30.8334L34.0732 28.2826C33.9491 27.1544 33.5757 26.0678 32.98 25.1016C33.007 25.097 33.0339 25.0937 33.0609 25.0889C34.6055 24.8136 36.0281 24.0699 37.1357 22.9586L38.2499 21.8443C38.37 21.7242 38.4375 21.5613 38.4375 21.3914C38.4375 21.2215 38.37 21.0585 38.2499 20.9384ZM22.4362 11.8359C21.8949 12.3831 21.5037 13.0604 21.3002 13.8026C21.0966 14.5449 21.0877 15.327 21.2742 16.0737C21.4607 16.8204 21.8364 17.5065 22.365 18.0658C22.8936 18.6252 23.5574 19.039 24.2924 19.2673C23.8961 19.401 23.4807 19.4693 23.0625 19.4695C22.9675 19.4695 22.8722 19.4648 22.7773 19.4578C22.2277 19.1306 21.6142 18.9253 20.9783 18.8558C20.8203 18.7535 20.67 18.6398 20.5286 18.5156C21.0055 17.7019 21.2121 16.758 21.1187 15.8195C21.0253 14.881 20.6367 13.9963 20.0088 13.2925C20.6047 12.5176 21.472 11.9972 22.4362 11.8359ZM23.7031 27.157C23.4847 27.157 23.2679 27.1198 23.062 27.047C23.3772 26.9358 23.6579 26.7444 23.8764 26.4915C24.095 26.2386 24.2437 25.9331 24.3079 25.6051C24.3722 25.2772 24.3497 24.9381 24.2428 24.6215C24.1358 24.3049 23.9481 24.0216 23.6981 23.7998C23.6885 23.6362 23.6632 23.4739 23.6225 23.3152C23.6493 23.3141 23.6762 23.3132 23.7031 23.3132C24.2128 23.3132 24.7017 23.5157 25.0621 23.8761C25.4225 24.2366 25.625 24.7254 25.625 25.2351C25.625 25.7448 25.4225 26.2337 25.0621 26.5941C24.7017 26.9545 24.2128 27.157 23.7031 27.157ZM10.8906 18.1882C10.8906 18.1144 10.8938 18.041 10.8987 17.9679C11.2953 18.415 11.8357 18.7092 12.4263 18.7997C12.7227 19.4983 13.2576 20.069 13.9357 20.4098C14.6137 20.7506 15.3908 20.8394 16.1282 20.6604C15.6597 21.0466 15.091 21.2915 14.4885 21.3667C13.8861 21.4419 13.2746 21.3442 12.7256 21.0851C12.1765 20.8259 11.7125 20.4159 11.3876 19.903C11.0627 19.3901 10.8903 18.7954 10.8906 18.1882ZM15.375 15.6257C15.6549 15.6258 15.9314 15.6869 16.1852 15.8049C16.439 15.923 16.664 16.095 16.8444 16.309C17.0247 16.523 17.1562 16.7739 17.2295 17.044C17.3029 17.3141 17.3163 17.597 17.269 17.8729C17.2216 18.1487 17.1145 18.4109 16.9553 18.6411C16.796 18.8713 16.5884 19.0639 16.347 19.2055C16.1055 19.347 15.8361 19.4342 15.5575 19.4608C15.2788 19.4874 14.9977 19.4528 14.7339 19.3595C15.0491 19.2483 15.3298 19.0569 15.5483 18.804C15.7668 18.5511 15.9156 18.2456 15.9798 17.9176C16.0441 17.5897 16.0216 17.2506 15.9146 16.934C15.8077 16.6174 15.6199 16.3341 15.37 16.1123C15.3604 15.9487 15.3351 15.7864 15.2944 15.6277C15.3212 15.6266 15.348 15.6257 15.375 15.6257ZM14.0938 16.907C14.2205 16.907 14.3443 16.9446 14.4497 17.0149C14.555 17.0853 14.6371 17.1854 14.6856 17.3025C14.7341 17.4195 14.7468 17.5483 14.7221 17.6726C14.6974 17.7969 14.6363 17.911 14.5467 18.0006C14.4572 18.0902 14.343 18.1512 14.2187 18.1759C14.0945 18.2006 13.9657 18.188 13.8486 18.1395C13.7315 18.091 13.6315 18.0089 13.5611 17.9035C13.4907 17.7982 13.4531 17.6743 13.4531 17.5476C13.4533 17.3778 13.5209 17.2149 13.641 17.0948C13.7611 16.9747 13.9239 16.9072 14.0938 16.907ZM12.1797 17.379C12.0082 17.2817 11.8615 17.1461 11.751 16.9827C11.6406 16.8194 11.5693 16.6327 11.5428 16.4373C11.5164 16.2419 11.5354 16.043 11.5984 15.8562C11.6615 15.6693 11.7668 15.4995 11.9063 15.3601C12.0457 15.2207 12.2155 15.1153 12.4023 15.0523C12.5892 14.9893 12.788 14.9702 12.9835 14.9967C13.1789 15.0232 13.3655 15.0944 13.5289 15.2049C13.6922 15.3154 13.8278 15.4621 13.9252 15.6336C13.4758 15.6737 13.0548 15.8705 12.7357 16.1896C12.4167 16.5086 12.2199 16.9296 12.1797 17.379ZM18.6196 23.4977C18.2792 24.0406 18.0599 24.6505 17.9768 25.2859C17.6964 24.9274 17.4956 24.5133 17.3878 24.0711C17.28 23.6289 17.2678 23.1688 17.3518 22.7215C17.4358 22.2742 17.6142 21.8499 17.8751 21.477C18.136 21.104 18.4734 20.791 18.8647 20.5587C19.2561 20.3264 19.6925 20.1802 20.1449 20.1298C20.5972 20.0794 21.0551 20.126 21.488 20.2665C21.9209 20.407 22.3189 20.6382 22.6554 20.9446C22.992 21.251 23.2594 21.6256 23.4398 22.0434C23.269 22.057 23.0997 22.0844 22.9333 22.1252C22.6012 21.7989 22.1863 21.5693 21.7334 21.4613C21.2805 21.3532 20.8067 21.3707 20.363 21.5119C19.9193 21.653 19.5225 21.9126 19.2153 22.2625C18.9081 22.6124 18.7021 23.0394 18.6196 23.4977ZM22.4219 25.8757C22.2952 25.8757 22.1713 25.8382 22.066 25.7678C21.9606 25.6974 21.8785 25.5973 21.83 25.4803C21.7815 25.3632 21.7688 25.2344 21.7936 25.1101C21.8183 24.9859 21.8793 24.8717 21.9689 24.7821C22.0585 24.6925 22.1726 24.6315 22.2969 24.6068C22.4212 24.5821 22.55 24.5948 22.667 24.6432C22.7841 24.6917 22.8842 24.7738 22.9545 24.8792C23.0249 24.9845 23.0625 25.1084 23.0625 25.2351C23.0623 25.405 22.9948 25.5678 22.8747 25.6879C22.7546 25.808 22.5917 25.8755 22.4219 25.8757ZM21.1406 22.6726C21.3668 22.6729 21.5889 22.733 21.7843 22.8469C21.9798 22.9608 22.1416 23.1244 22.2533 23.3211C21.8039 23.3612 21.3829 23.558 21.0639 23.8771C20.7448 24.1961 20.548 24.6171 20.5078 25.0665C20.2619 24.927 20.0691 24.7099 19.9595 24.4493C19.8499 24.1887 19.8296 23.8991 19.9019 23.6258C19.9742 23.3524 20.1349 23.1106 20.3589 22.9382C20.583 22.7658 20.8579 22.6724 21.1406 22.6726ZM25.625 18.1882C25.0179 18.1885 24.4231 18.0162 23.9102 17.6913C23.3973 17.3664 22.9874 16.9024 22.7282 16.3533C22.469 15.8042 22.3713 15.1928 22.4465 14.5903C22.5217 13.9878 22.7667 13.4192 23.1528 12.9506C22.9738 13.6881 23.0627 14.4651 23.4035 15.1432C23.7443 15.8212 24.3149 16.3561 25.0135 16.6525C25.104 17.2432 25.3983 17.7836 25.8453 18.1801C25.7722 18.1851 25.6988 18.1882 25.625 18.1882ZM26.2656 15.6257C26.1389 15.6257 26.0151 15.5882 25.9097 15.5178C25.8044 15.4474 25.7223 15.3473 25.6738 15.2303C25.6253 15.1132 25.6126 14.9844 25.6373 14.8601C25.662 14.7359 25.723 14.6217 25.8126 14.5321C25.9022 14.4425 26.0164 14.3815 26.1407 14.3568C26.2649 14.3321 26.3937 14.3448 26.5108 14.3932C26.6278 14.4417 26.7279 14.5238 26.7983 14.6292C26.8687 14.7345 26.9063 14.8584 26.9063 14.9851C26.9061 15.155 26.8385 15.3178 26.7184 15.4379C26.5983 15.558 26.4355 15.6255 26.2656 15.6257ZM27.5469 17.5476C27.3207 17.5474 27.0986 17.4872 26.9032 17.3733C26.7077 17.2594 26.5459 17.0958 26.4342 16.8991C26.8836 16.859 27.3046 16.6622 27.6237 16.3431C27.9427 16.0241 28.1395 15.6031 28.1797 15.1537C28.4256 15.2932 28.6184 15.5103 28.728 15.7709C28.8376 16.0315 28.8579 16.3211 28.7856 16.5945C28.7134 16.8678 28.5527 17.1096 28.3286 17.282C28.1045 17.4544 27.8296 17.5478 27.5469 17.5476ZM28.1856 13.7844C28.0268 13.7438 27.8645 13.7185 27.7009 13.7089C27.4791 13.4589 27.1959 13.2712 26.8793 13.1642C26.5626 13.0573 26.2236 13.0348 25.8956 13.099C25.5676 13.1633 25.2621 13.312 25.0092 13.5305C24.7564 13.7491 24.5649 14.0298 24.4538 14.345C24.3604 14.0811 24.3258 13.8 24.3524 13.5214C24.379 13.2427 24.4661 12.9732 24.6077 12.7318C24.7493 12.4903 24.9419 12.2827 25.1721 12.1234C25.4023 11.9641 25.6645 11.8571 25.9403 11.8097C26.2162 11.7623 26.4991 11.7758 26.7693 11.8491C27.0394 11.9225 27.2902 12.054 27.5043 12.2344C27.7183 12.4148 27.8903 12.6398 28.0083 12.8936C28.1264 13.1474 28.1875 13.4239 28.1875 13.7039C28.1875 13.7308 28.1867 13.7577 28.1856 13.7844ZM19.8594 16.2664C19.8575 16.7735 19.7358 17.2731 19.5043 17.7243C19.2728 18.1756 18.9381 18.5658 18.5273 18.8632C18.5611 18.6398 18.5781 18.4142 18.5781 18.1882C18.5781 18.073 18.5727 17.9574 18.564 17.843C18.5729 17.7456 18.5781 17.6472 18.5781 17.5476C18.5773 16.9011 18.3812 16.2699 18.0154 15.7369C17.6497 15.2038 17.1314 14.7936 16.5285 14.5602C16.4049 14.0584 16.1945 13.582 15.9068 13.1527C16.3777 13.0389 16.8683 13.0336 17.3416 13.137C17.8149 13.2405 18.2585 13.45 18.6391 13.7498C19.0197 14.0496 19.3272 14.4318 19.5386 14.8678C19.75 15.3037 19.8597 15.7819 19.8594 16.2664ZM15.1116 14.3559C14.9409 14.3695 14.7715 14.3969 14.6052 14.4377C14.2731 14.1114 13.8582 13.8818 13.4053 13.7738C12.9524 13.6657 12.4786 13.6832 12.0349 13.8244C11.5912 13.9655 11.1943 14.2251 10.8872 14.575C10.58 14.9249 10.374 15.3519 10.2915 15.8102C9.95105 16.3531 9.73177 16.963 9.64864 17.5984C9.36823 17.2399 9.16745 16.8258 9.05968 16.3836C8.95191 15.9414 8.93963 15.4813 9.02365 15.034C9.10768 14.5867 9.28608 14.1624 9.54696 13.7895C9.80785 13.4165 10.1452 13.1035 10.5366 12.8712C10.928 12.6389 11.3644 12.4927 11.8167 12.4423C12.2691 12.3919 12.727 12.4385 13.1599 12.579C13.5928 12.7195 13.9908 12.9507 14.3273 13.2571C14.6639 13.5635 14.9312 13.9381 15.1116 14.3559H15.1116ZM14.0938 22.6726C14.8155 22.6732 15.5265 22.4984 16.1657 22.1633C16.0133 22.7374 15.9765 23.3361 16.0574 23.9246C16.1384 24.5131 16.3355 25.0796 16.6372 25.5913L13.7002 22.6543C13.83 22.6657 13.961 22.6726 14.0938 22.6726ZM17.3935 28.1595C18.3618 29.1314 19.5259 29.8861 20.8083 30.3736L10.584 32.3506L8.2732 30.0398L13.7734 24.5395L17.3935 28.1595ZM22.4219 29.0789C21.5727 29.0779 20.7585 28.7401 20.158 28.1396C19.5575 27.5391 19.2197 26.725 19.2188 25.8757C19.2188 25.8019 19.2219 25.7285 19.2269 25.6554C19.6234 26.1025 20.1638 26.3967 20.7545 26.4872C21.0508 27.1858 21.5857 27.7565 22.2638 28.0973C22.9418 28.4381 23.7189 28.5269 24.4564 28.3479C23.884 28.8211 23.1645 29.0796 22.4219 29.0789ZM26.8921 25.5305C26.9011 25.4331 26.9063 25.3347 26.9063 25.2351C26.9054 24.5886 26.7093 23.9574 26.3436 23.4244C25.9778 22.8913 25.4595 22.4811 24.8566 22.2477C24.733 21.7459 24.5226 21.2695 24.2349 20.8402C24.9565 20.6659 25.7161 20.7478 26.384 21.0719C27.0518 21.396 27.5862 21.9421 27.8958 22.6167C28.2054 23.2914 28.2709 24.0527 28.0811 24.7703C27.8913 25.4879 27.458 26.1173 26.8554 26.5507C26.8893 26.3273 26.9063 26.1017 26.9063 25.8757C26.9063 25.7605 26.9008 25.6449 26.8921 25.5305ZM28.1875 20.1101C27.4725 20.1102 26.778 19.8708 26.2148 19.4302C26.8502 19.3471 27.4602 19.1279 28.003 18.7874C28.4613 18.7049 28.8883 18.4989 29.2383 18.1917C29.5882 17.8845 29.8477 17.4877 29.9889 17.044C30.1301 16.6003 30.1475 16.1265 30.0395 15.6736C29.9314 15.2207 29.7018 14.8058 29.3755 14.4736C29.4164 14.3073 29.4437 14.138 29.4573 13.9672C30.1339 14.2593 30.689 14.7757 31.0291 15.4294C31.3692 16.0832 31.4735 16.8342 31.3243 17.5558C31.1752 18.2775 30.7817 18.9256 30.2103 19.3909C29.6388 19.8562 28.9244 20.1102 28.1875 20.1101ZM30.75 12.4226C30.7497 12.6751 30.7197 12.9266 30.6606 13.1721C30.2312 12.8843 29.7549 12.6739 29.253 12.5504C29.0196 11.9475 28.6095 11.4292 28.0764 11.0634C27.5433 10.6977 26.9121 10.5015 26.2656 10.5007C26.1659 10.5007 26.0675 10.5059 25.9701 10.5149C25.8555 10.5062 25.7399 10.5007 25.625 10.5007C25.3991 10.5007 25.1734 10.5177 24.9501 10.5516C25.3456 10.0016 25.9055 9.59121 26.5491 9.37961C27.1927 9.16801 27.8869 9.16607 28.5317 9.37407C29.1765 9.58208 29.7386 9.98929 30.1373 10.5371C30.5359 11.0849 30.7504 11.7451 30.75 12.4226ZM20.6782 3.93628L21.7813 2.55747L22.8843 3.93628C23.5111 4.72133 23.9449 5.64257 24.1508 6.62587C24.3566 7.60917 24.3287 8.62706 24.0694 9.59762C23.8386 9.87993 23.6432 10.1894 23.4875 10.5192C23.3462 10.5075 23.2044 10.5007 23.0625 10.5007C22.8483 10.5009 22.6343 10.5146 22.4219 10.5418V6.01636H21.1406V10.8778C20.8309 11.0036 20.534 11.1592 20.2543 11.3423C19.5449 10.2174 19.2044 8.89913 19.2804 7.57142C19.3564 6.2437 19.8451 4.97285 20.6782 3.93628ZM12.8125 6.01636H13.7476C15.313 6.01369 16.8247 6.58713 17.9944 7.62738C17.9494 8.73734 18.1465 9.8438 18.5721 10.8699L15.7048 8.00263L14.7987 8.9086L17.8286 11.9385C16.9322 11.6948 15.9822 11.7365 15.1106 12.0578C14.3931 11.455 13.8157 10.7028 13.4188 9.85384C13.0219 9.00488 12.815 8.07954 12.8125 7.14238V6.01636ZM11.8585 9.35057C12.0517 9.99017 12.3266 10.6022 12.6765 11.1714C11.9034 11.0809 11.1202 11.1958 10.4057 11.5044C10.7768 10.7163 11.2668 9.98991 11.8585 9.35057ZM9.11855 18.9099C9.6031 20.0398 10.2992 21.0668 11.1693 21.9354L12.8674 23.6336L7.36719 29.1338L6.97822 28.7448L8.91828 18.7117C8.98279 18.7797 9.04955 18.8458 9.11855 18.9099ZM2.4592 34.0108L3.9308 33.275L3.95276 33.297L1.58679 37.0149C1.43514 36.7633 1.33722 36.4829 1.29918 36.1916C1.26114 35.9002 1.2838 35.6042 1.36574 35.322C1.44769 35.0398 1.58714 34.7777 1.77532 34.552C1.9635 34.3264 2.19635 34.1421 2.4592 34.0108ZM5.31809 36.8697C5.07426 37.3579 4.65232 37.7338 4.13934 37.9199C3.62637 38.106 3.06151 38.0881 2.56137 37.8699L4.8808 34.225L6.05384 35.3981L5.31809 36.8697ZM8.17275 33.5824C8.06819 33.6085 7.97193 33.6606 7.89285 33.7338C7.81377 33.807 7.75444 33.899 7.72035 34.0013L7.40755 34.9398L4.38905 31.9213L5.32763 31.6085C5.42986 31.5744 5.52184 31.5151 5.59505 31.436C5.66827 31.3569 5.72035 31.2607 5.74647 31.1561L6.11269 29.6913L9.63761 33.2162L8.17275 33.5824ZM24.7542 29.7043C25.253 29.399 25.6877 28.9998 26.0343 28.5289C26.2703 28.8129 26.5265 29.0796 26.8008 29.3269C26.137 29.5375 25.4495 29.6643 24.7542 29.7043ZM31.2399 29.984C29.6657 29.8091 28.2122 29.0571 27.16 27.8731C27.7062 27.5667 28.1828 27.1501 28.5596 26.6498L30.096 28.1862L31.0021 27.2802L29.1986 25.4768C29.2728 25.273 29.3321 25.0641 29.3759 24.8516C30.0626 25.0703 30.7767 25.1905 31.4971 25.2088C32.22 26.1397 32.6709 27.2526 32.7998 28.4241L32.9948 30.179L31.2399 29.984ZM36.2297 22.0526C35.3569 22.9187 34.2546 23.5171 33.0528 23.777C31.8511 24.037 30.6 23.9477 29.4474 23.5197C29.3977 23.0035 29.2582 22.5001 29.0352 22.032H33.3125V20.7507H30.4945C31.2735 20.281 31.8923 19.5869 32.2698 18.7593C33.7168 18.9174 35.0662 19.5651 36.0947 20.5951L36.8909 21.3914L36.2297 22.0526Z" fill="white"/>
</svg>
