<svg width="212" height="41" viewBox="0 0 212 41" fill="none" xmlns="http://www.w3.org/2000/svg">
<path d="M49.162 7.2H53.614C54.678 7.2 55.616 7.40533 56.428 7.816C57.2493 8.21733 57.884 8.78667 58.332 9.524C58.7893 10.2613 59.018 11.12 59.018 12.1C59.018 13.08 58.7893 13.9387 58.332 14.676C57.884 15.4133 57.2493 15.9873 56.428 16.398C55.616 16.7993 54.678 17 53.614 17H49.162V7.2ZM53.502 15.138C54.482 15.138 55.2613 14.8673 55.84 14.326C56.428 13.7753 56.722 13.0333 56.722 12.1C56.722 11.1667 56.428 10.4293 55.84 9.888C55.2613 9.33733 54.482 9.062 53.502 9.062H51.43V15.138H53.502ZM65.4744 17.168C64.4571 17.168 63.5377 16.9487 62.7164 16.51C61.9044 16.0713 61.2651 15.4693 60.7984 14.704C60.3411 13.9293 60.1124 13.0613 60.1124 12.1C60.1124 11.1387 60.3411 10.2753 60.7984 9.51C61.2651 8.73533 61.9044 8.12867 62.7164 7.69C63.5377 7.25133 64.4571 7.032 65.4744 7.032C66.4917 7.032 67.4064 7.25133 68.2184 7.69C69.0304 8.12867 69.6697 8.73533 70.1364 9.51C70.6031 10.2753 70.8364 11.1387 70.8364 12.1C70.8364 13.0613 70.6031 13.9293 70.1364 14.704C69.6697 15.4693 69.0304 16.0713 68.2184 16.51C67.4064 16.9487 66.4917 17.168 65.4744 17.168ZM65.4744 15.236C66.0531 15.236 66.5757 15.1053 67.0424 14.844C67.5091 14.5733 67.8731 14.2 68.1344 13.724C68.4051 13.248 68.5404 12.7067 68.5404 12.1C68.5404 11.4933 68.4051 10.952 68.1344 10.476C67.8731 10 67.5091 9.63133 67.0424 9.37C66.5757 9.09933 66.0531 8.964 65.4744 8.964C64.8957 8.964 64.3731 9.09933 63.9064 9.37C63.4397 9.63133 63.0711 10 62.8004 10.476C62.5391 10.952 62.4084 11.4933 62.4084 12.1C62.4084 12.7067 62.5391 13.248 62.8004 13.724C63.0711 14.2 63.4397 14.5733 63.9064 14.844C64.3731 15.1053 64.8957 15.236 65.4744 15.236ZM81.5289 7.2V17H79.6669L74.7809 11.05V17H72.5409V7.2H74.4169L79.2889 13.15V7.2H81.5289ZM95.0084 11.904C95.5684 12.0813 96.0071 12.38 96.3244 12.8C96.6417 13.2107 96.8004 13.7193 96.8004 14.326C96.8004 15.1847 96.4644 15.8473 95.7924 16.314C95.1297 16.7713 94.1591 17 92.8804 17H87.8124V7.2H92.6004C93.7951 7.2 94.7097 7.42867 95.3444 7.886C95.9884 8.34333 96.3104 8.964 96.3104 9.748C96.3104 10.224 96.1937 10.6487 95.9604 11.022C95.7364 11.3953 95.4191 11.6893 95.0084 11.904ZM90.0664 8.908V11.218H92.3204C92.8804 11.218 93.3051 11.12 93.5944 10.924C93.8837 10.728 94.0284 10.4387 94.0284 10.056C94.0284 9.67333 93.8837 9.38867 93.5944 9.202C93.3051 9.006 92.8804 8.908 92.3204 8.908H90.0664ZM92.7124 15.292C93.3097 15.292 93.7577 15.194 94.0564 14.998C94.3644 14.802 94.5184 14.4987 94.5184 14.088C94.5184 13.276 93.9164 12.87 92.7124 12.87H90.0664V15.292H92.7124ZM102.871 17.168C101.471 17.168 100.379 16.7807 99.5955 16.006C98.8208 15.2313 98.4335 14.1253 98.4335 12.688V7.2H100.701V12.604C100.701 14.3587 101.429 15.236 102.885 15.236C103.595 15.236 104.136 15.026 104.509 14.606C104.883 14.1767 105.069 13.5093 105.069 12.604V7.2H107.309V12.688C107.309 14.1253 106.917 15.2313 106.133 16.006C105.359 16.7807 104.271 17.168 102.871 17.168ZM111.417 9.048H108.281V7.2H116.821V9.048H113.685V17H111.417V9.048ZM122.65 17.168C121.633 17.168 120.714 16.9487 119.892 16.51C119.08 16.0713 118.441 15.4693 117.974 14.704C117.517 13.9293 117.288 13.0613 117.288 12.1C117.288 11.1387 117.517 10.2753 117.974 9.51C118.441 8.73533 119.08 8.12867 119.892 7.69C120.714 7.25133 121.633 7.032 122.65 7.032C123.668 7.032 124.582 7.25133 125.394 7.69C126.206 8.12867 126.846 8.73533 127.312 9.51C127.779 10.2753 128.012 11.1387 128.012 12.1C128.012 13.0613 127.779 13.9293 127.312 14.704C126.846 15.4693 126.206 16.0713 125.394 16.51C124.582 16.9487 123.668 17.168 122.65 17.168ZM122.65 15.236C123.229 15.236 123.752 15.1053 124.218 14.844C124.685 14.5733 125.049 14.2 125.31 13.724C125.581 13.248 125.716 12.7067 125.716 12.1C125.716 11.4933 125.581 10.952 125.31 10.476C125.049 10 124.685 9.63133 124.218 9.37C123.752 9.09933 123.229 8.964 122.65 8.964C122.072 8.964 121.549 9.09933 121.082 9.37C120.616 9.63133 120.247 10 119.976 10.476C119.715 10.952 119.584 11.4933 119.584 12.1C119.584 12.7067 119.715 13.248 119.976 13.724C120.247 14.2 120.616 14.5733 121.082 14.844C121.549 15.1053 122.072 15.236 122.65 15.236ZM138.705 7.2V17H136.843L131.957 11.05V17H129.717V7.2H131.593L136.465 13.15V7.2H138.705Z" fill="#872CB3"/>
<path d="M56.371 32.296V34.727H55.612V33H48.891L48.88 34.727H48.121L48.132 32.296H48.517C49.023 32.2667 49.375 31.867 49.573 31.097C49.771 30.3197 49.892 29.2197 49.936 27.797L50.024 25.3H55.216V32.296H56.371ZM50.662 27.874C50.6253 29.0473 50.5337 30.0153 50.387 30.778C50.2477 31.5333 50.0093 32.0393 49.672 32.296H54.413V26.004H50.728L50.662 27.874ZM60.0703 33.055C59.5129 33.055 59.0106 32.9303 58.5633 32.681C58.1159 32.4243 57.7639 32.0723 57.5073 31.625C57.2506 31.1777 57.1223 30.6717 57.1223 30.107C57.1223 29.5423 57.2506 29.0363 57.5073 28.589C57.7639 28.1417 58.1159 27.7933 58.5633 27.544C59.0106 27.2947 59.5129 27.17 60.0703 27.17C60.6276 27.17 61.1299 27.2947 61.5773 27.544C62.0246 27.7933 62.3729 28.1417 62.6223 28.589C62.8789 29.0363 63.0073 29.5423 63.0073 30.107C63.0073 30.6717 62.8789 31.1777 62.6223 31.625C62.3729 32.0723 62.0246 32.4243 61.5773 32.681C61.1299 32.9303 60.6276 33.055 60.0703 33.055ZM60.0703 32.362C60.4809 32.362 60.8476 32.2703 61.1703 32.087C61.5003 31.8963 61.7569 31.6287 61.9403 31.284C62.1236 30.9393 62.2153 30.547 62.2153 30.107C62.2153 29.667 62.1236 29.2747 61.9403 28.93C61.7569 28.5853 61.5003 28.3213 61.1703 28.138C60.8476 27.9473 60.4809 27.852 60.0703 27.852C59.6596 27.852 59.2893 27.9473 58.9593 28.138C58.6366 28.3213 58.3799 28.5853 58.1893 28.93C58.0059 29.2747 57.9143 29.667 57.9143 30.107C57.9143 30.547 58.0059 30.9393 58.1893 31.284C58.3799 31.6287 58.6366 31.8963 58.9593 32.087C59.2893 32.2703 59.6596 32.362 60.0703 32.362ZM67.0964 33.055C66.5244 33.055 66.0111 32.9303 65.5564 32.681C65.1091 32.4317 64.7571 32.0833 64.5004 31.636C64.2438 31.1813 64.1154 30.6717 64.1154 30.107C64.1154 29.5423 64.2438 29.0363 64.5004 28.589C64.7571 28.1417 65.1091 27.7933 65.5564 27.544C66.0111 27.2947 66.5244 27.17 67.0964 27.17C67.5951 27.17 68.0388 27.269 68.4274 27.467C68.8234 27.6577 69.1351 27.94 69.3624 28.314L68.7794 28.71C68.5888 28.424 68.3468 28.2113 68.0534 28.072C67.7601 27.9253 67.4411 27.852 67.0964 27.852C66.6784 27.852 66.3008 27.9473 65.9634 28.138C65.6334 28.3213 65.3731 28.5853 65.1824 28.93C64.9991 29.2747 64.9074 29.667 64.9074 30.107C64.9074 30.5543 64.9991 30.9503 65.1824 31.295C65.3731 31.6323 65.6334 31.8963 65.9634 32.087C66.3008 32.2703 66.6784 32.362 67.0964 32.362C67.4411 32.362 67.7601 32.2923 68.0534 32.153C68.3468 32.0137 68.5888 31.801 68.7794 31.515L69.3624 31.911C69.1351 32.285 68.8234 32.571 68.4274 32.769C68.0314 32.9597 67.5878 33.055 67.0964 33.055ZM74.8373 27.907H72.6483V33H71.8673V27.907H69.6783V27.214H74.8373V27.907ZM77.9575 27.17C78.7128 27.17 79.2921 27.3607 79.6955 27.742C80.0988 28.116 80.3005 28.6733 80.3005 29.414V33H79.5525V32.098C79.3765 32.3987 79.1161 32.6333 78.7715 32.802C78.4341 32.9707 78.0308 33.055 77.5615 33.055C76.9161 33.055 76.4028 32.901 76.0215 32.593C75.6401 32.285 75.4495 31.878 75.4495 31.372C75.4495 30.8807 75.6255 30.4847 75.9775 30.184C76.3368 29.8833 76.9051 29.733 77.6825 29.733H79.5195V29.381C79.5195 28.8823 79.3801 28.5047 79.1015 28.248C78.8228 27.984 78.4158 27.852 77.8805 27.852C77.5138 27.852 77.1618 27.9143 76.8245 28.039C76.4871 28.1563 76.1975 28.3213 75.9555 28.534L75.6035 27.951C75.8968 27.7017 76.2488 27.511 76.6595 27.379C77.0701 27.2397 77.5028 27.17 77.9575 27.17ZM77.6825 32.439C78.1225 32.439 78.5001 32.34 78.8155 32.142C79.1308 31.9367 79.3655 31.6433 79.5195 31.262V30.316H77.7045C76.7145 30.316 76.2195 30.6607 76.2195 31.35C76.2195 31.6873 76.3478 31.955 76.6045 32.153C76.8611 32.3437 77.2205 32.439 77.6825 32.439ZM86.0646 30.008C86.8492 30.1913 87.2416 30.6643 87.2416 31.427C87.2416 31.933 87.0546 32.3217 86.6806 32.593C86.3066 32.8643 85.7492 33 85.0086 33H82.3796V27.214H84.9316C85.5916 27.214 86.1086 27.3423 86.4826 27.599C86.8566 27.8557 87.0436 28.2223 87.0436 28.699C87.0436 29.0143 86.9556 29.2857 86.7796 29.513C86.6109 29.733 86.3726 29.898 86.0646 30.008ZM83.1386 29.788H84.8766C85.3239 29.788 85.6649 29.7037 85.8996 29.535C86.1416 29.3663 86.2626 29.1207 86.2626 28.798C86.2626 28.4753 86.1416 28.2333 85.8996 28.072C85.6649 27.9107 85.3239 27.83 84.8766 27.83H83.1386V29.788ZM84.9756 32.384C85.4742 32.384 85.8482 32.3033 86.0976 32.142C86.3469 31.9807 86.4716 31.7277 86.4716 31.383C86.4716 31.0383 86.3579 30.7853 86.1306 30.624C85.9032 30.4553 85.5439 30.371 85.0526 30.371H83.1386V32.384H84.9756ZM91.1729 30.426H89.8529V33H89.0719V27.214H89.8529V29.755H91.1839L93.2189 27.214H94.0659L91.7889 30.019L94.2309 33H93.3069L91.1729 30.426ZM97.3471 27.17C98.1025 27.17 98.6818 27.3607 99.0851 27.742C99.4885 28.116 99.6901 28.6733 99.6901 29.414V33H98.9421V32.098C98.7661 32.3987 98.5058 32.6333 98.1611 32.802C97.8238 32.9707 97.4205 33.055 96.9511 33.055C96.3058 33.055 95.7925 32.901 95.4111 32.593C95.0298 32.285 94.8391 31.878 94.8391 31.372C94.8391 30.8807 95.0151 30.4847 95.3671 30.184C95.7265 29.8833 96.2948 29.733 97.0721 29.733H98.9091V29.381C98.9091 28.8823 98.7698 28.5047 98.4911 28.248C98.2125 27.984 97.8055 27.852 97.2701 27.852C96.9035 27.852 96.5515 27.9143 96.2141 28.039C95.8768 28.1563 95.5871 28.3213 95.3451 28.534L94.9931 27.951C95.2865 27.7017 95.6385 27.511 96.0491 27.379C96.4598 27.2397 96.8925 27.17 97.3471 27.17ZM97.0721 32.439C97.5121 32.439 97.8898 32.34 98.2051 32.142C98.5205 31.9367 98.7551 31.6433 98.9091 31.262V30.316H97.0941C96.1041 30.316 95.6091 30.6607 95.6091 31.35C95.6091 31.6873 95.7375 31.955 95.9941 32.153C96.2508 32.3437 96.6101 32.439 97.0721 32.439ZM110.676 32.318V34.452H109.939V33H104.648V27.214H105.429V32.318H108.96V27.214H109.741V32.318H110.676ZM115.853 30.008C116.637 30.1913 117.03 30.6643 117.03 31.427C117.03 31.933 116.843 32.3217 116.469 32.593C116.095 32.8643 115.537 33 114.797 33H112.168V27.214H114.72C115.38 27.214 115.897 27.3423 116.271 27.599C116.645 27.8557 116.832 28.2223 116.832 28.699C116.832 29.0143 116.744 29.2857 116.568 29.513C116.399 29.733 116.161 29.898 115.853 30.008ZM112.927 29.788H114.665C115.112 29.788 115.453 29.7037 115.688 29.535C115.93 29.3663 116.051 29.1207 116.051 28.798C116.051 28.4753 115.93 28.2333 115.688 28.072C115.453 27.9107 115.112 27.83 114.665 27.83H112.927V29.788ZM114.764 32.384C115.262 32.384 115.636 32.3033 115.886 32.142C116.135 31.9807 116.26 31.7277 116.26 31.383C116.26 31.0383 116.146 30.7853 115.919 30.624C115.691 30.4553 115.332 30.371 114.841 30.371H112.927V32.384H114.764ZM123.92 30.349H119.08C119.124 30.9503 119.355 31.438 119.773 31.812C120.191 32.1787 120.719 32.362 121.357 32.362C121.716 32.362 122.046 32.2997 122.347 32.175C122.648 32.043 122.908 31.8523 123.128 31.603L123.568 32.109C123.311 32.417 122.989 32.6517 122.6 32.813C122.219 32.9743 121.797 33.055 121.335 33.055C120.741 33.055 120.213 32.9303 119.751 32.681C119.296 32.4243 118.941 32.0723 118.684 31.625C118.427 31.1777 118.299 30.6717 118.299 30.107C118.299 29.5423 118.42 29.0363 118.662 28.589C118.911 28.1417 119.249 27.7933 119.674 27.544C120.107 27.2947 120.591 27.17 121.126 27.17C121.661 27.17 122.142 27.2947 122.567 27.544C122.992 27.7933 123.326 28.1417 123.568 28.589C123.81 29.029 123.931 29.535 123.931 30.107L123.92 30.349ZM121.126 27.841C120.569 27.841 120.099 28.0207 119.718 28.38C119.344 28.732 119.131 29.194 119.08 29.766H123.183C123.132 29.194 122.915 28.732 122.534 28.38C122.16 28.0207 121.691 27.841 121.126 27.841ZM129.472 27.907H127.283V33H126.502V27.907H124.313V27.214H129.472V27.907ZM132.72 33.055C132.162 33.055 131.66 32.9303 131.213 32.681C130.765 32.4243 130.413 32.0723 130.157 31.625C129.9 31.1777 129.772 30.6717 129.772 30.107C129.772 29.5423 129.9 29.0363 130.157 28.589C130.413 28.1417 130.765 27.7933 131.213 27.544C131.66 27.2947 132.162 27.17 132.72 27.17C133.277 27.17 133.779 27.2947 134.227 27.544C134.674 27.7933 135.022 28.1417 135.272 28.589C135.528 29.0363 135.657 29.5423 135.657 30.107C135.657 30.6717 135.528 31.1777 135.272 31.625C135.022 32.0723 134.674 32.4243 134.227 32.681C133.779 32.9303 133.277 33.055 132.72 33.055ZM132.72 32.362C133.13 32.362 133.497 32.2703 133.82 32.087C134.15 31.8963 134.406 31.6287 134.59 31.284C134.773 30.9393 134.865 30.547 134.865 30.107C134.865 29.667 134.773 29.2747 134.59 28.93C134.406 28.5853 134.15 28.3213 133.82 28.138C133.497 27.9473 133.13 27.852 132.72 27.852C132.309 27.852 131.939 27.9473 131.609 28.138C131.286 28.3213 131.029 28.5853 130.839 28.93C130.655 29.2747 130.564 29.667 130.564 30.107C130.564 30.547 130.655 30.9393 130.839 31.284C131.029 31.6287 131.286 31.8963 131.609 32.087C131.939 32.2703 132.309 32.362 132.72 32.362ZM141.011 30.008C141.796 30.1913 142.188 30.6643 142.188 31.427C142.188 31.933 142.001 32.3217 141.627 32.593C141.253 32.8643 140.696 33 139.955 33H137.326V27.214H139.878C140.538 27.214 141.055 27.3423 141.429 27.599C141.803 27.8557 141.99 28.2223 141.99 28.699C141.99 29.0143 141.902 29.2857 141.726 29.513C141.557 29.733 141.319 29.898 141.011 30.008ZM138.085 29.788H139.823C140.27 29.788 140.611 29.7037 140.846 29.535C141.088 29.3663 141.209 29.1207 141.209 28.798C141.209 28.4753 141.088 28.2333 140.846 28.072C140.611 27.9107 140.27 27.83 139.823 27.83H138.085V29.788ZM139.922 32.384C140.421 32.384 140.795 32.3033 141.044 32.142C141.293 31.9807 141.418 31.7277 141.418 31.383C141.418 31.0383 141.304 30.7853 141.077 30.624C140.85 30.4553 140.49 30.371 139.999 30.371H138.085V32.384H139.922ZM146.897 27.214H147.678V31.812L151.539 27.214H152.232V33H151.451V28.402L147.601 33H146.897V27.214ZM162.541 27.214V33H161.76V27.907H158.13V33H157.349V27.214H162.541ZM167.148 33.055C166.591 33.055 166.089 32.9303 165.641 32.681C165.194 32.4243 164.842 32.0723 164.585 31.625C164.329 31.1777 164.2 30.6717 164.2 30.107C164.2 29.5423 164.329 29.0363 164.585 28.589C164.842 28.1417 165.194 27.7933 165.641 27.544C166.089 27.2947 166.591 27.17 167.148 27.17C167.706 27.17 168.208 27.2947 168.655 27.544C169.103 27.7933 169.451 28.1417 169.7 28.589C169.957 29.0363 170.085 29.5423 170.085 30.107C170.085 30.6717 169.957 31.1777 169.7 31.625C169.451 32.0723 169.103 32.4243 168.655 32.681C168.208 32.9303 167.706 33.055 167.148 33.055ZM167.148 32.362C167.559 32.362 167.926 32.2703 168.248 32.087C168.578 31.8963 168.835 31.6287 169.018 31.284C169.202 30.9393 169.293 30.547 169.293 30.107C169.293 29.667 169.202 29.2747 169.018 28.93C168.835 28.5853 168.578 28.3213 168.248 28.138C167.926 27.9473 167.559 27.852 167.148 27.852C166.738 27.852 166.367 27.9473 166.037 28.138C165.715 28.3213 165.458 28.5853 165.267 28.93C165.084 29.2747 164.992 29.667 164.992 30.107C164.992 30.547 165.084 30.9393 165.267 31.284C165.458 31.6287 165.715 31.8963 166.037 32.087C166.367 32.2703 166.738 32.362 167.148 32.362ZM177.365 32.318V34.397H176.628V33H171.447V34.397H170.71V32.318H171.04C171.429 32.296 171.693 32.01 171.832 31.46C171.972 30.91 172.067 30.14 172.118 29.15L172.195 27.214H176.463V32.318H177.365ZM172.833 29.194C172.797 30.0153 172.727 30.6937 172.624 31.229C172.522 31.757 172.338 32.12 172.074 32.318H175.682V27.907H172.899L172.833 29.194ZM180.878 27.17C181.634 27.17 182.213 27.3607 182.616 27.742C183.02 28.116 183.221 28.6733 183.221 29.414V33H182.473V32.098C182.297 32.3987 182.037 32.6333 181.692 32.802C181.355 32.9707 180.952 33.055 180.482 33.055C179.837 33.055 179.324 32.901 178.942 32.593C178.561 32.285 178.37 31.878 178.37 31.372C178.37 30.8807 178.546 30.4847 178.898 30.184C179.258 29.8833 179.826 29.733 180.603 29.733H182.44V29.381C182.44 28.8823 182.301 28.5047 182.022 28.248C181.744 27.984 181.337 27.852 180.801 27.852C180.435 27.852 180.083 27.9143 179.745 28.039C179.408 28.1563 179.118 28.3213 178.876 28.534L178.524 27.951C178.818 27.7017 179.17 27.511 179.58 27.379C179.991 27.2397 180.424 27.17 180.878 27.17ZM180.603 32.439C181.043 32.439 181.421 32.34 181.736 32.142C182.052 31.9367 182.286 31.6433 182.44 31.262V30.316H180.625C179.635 30.316 179.14 30.6607 179.14 31.35C179.14 31.6873 179.269 31.955 179.525 32.153C179.782 32.3437 180.141 32.439 180.603 32.439ZM188.281 27.17C188.824 27.17 189.315 27.2947 189.755 27.544C190.195 27.786 190.54 28.1307 190.789 28.578C191.039 29.0253 191.163 29.535 191.163 30.107C191.163 30.6863 191.039 31.1997 190.789 31.647C190.54 32.0943 190.195 32.4427 189.755 32.692C189.323 32.934 188.831 33.055 188.281 33.055C187.812 33.055 187.387 32.9597 187.005 32.769C186.631 32.571 186.323 32.285 186.081 31.911V35.134H185.3V27.214H186.048V28.358C186.283 27.9767 186.591 27.6833 186.972 27.478C187.361 27.2727 187.797 27.17 188.281 27.17ZM188.226 32.362C188.63 32.362 188.996 32.2703 189.326 32.087C189.656 31.8963 189.913 31.6287 190.096 31.284C190.287 30.9393 190.382 30.547 190.382 30.107C190.382 29.667 190.287 29.2783 190.096 28.941C189.913 28.5963 189.656 28.3287 189.326 28.138C188.996 27.9473 188.63 27.852 188.226 27.852C187.816 27.852 187.445 27.9473 187.115 28.138C186.793 28.3287 186.536 28.5963 186.345 28.941C186.162 29.2783 186.07 29.667 186.07 30.107C186.07 30.547 186.162 30.9393 186.345 31.284C186.536 31.6287 186.793 31.8963 187.115 32.087C187.445 32.2703 187.816 32.362 188.226 32.362ZM194.942 30.426H193.622V33H192.841V27.214H193.622V29.755H194.953L196.988 27.214H197.835L195.558 30.019L198 33H197.076L194.942 30.426ZM201.416 33.055C200.859 33.055 200.356 32.9303 199.909 32.681C199.462 32.4243 199.11 32.0723 198.853 31.625C198.596 31.1777 198.468 30.6717 198.468 30.107C198.468 29.5423 198.596 29.0363 198.853 28.589C199.11 28.1417 199.462 27.7933 199.909 27.544C200.356 27.2947 200.859 27.17 201.416 27.17C201.973 27.17 202.476 27.2947 202.923 27.544C203.37 27.7933 203.719 28.1417 203.968 28.589C204.225 29.0363 204.353 29.5423 204.353 30.107C204.353 30.6717 204.225 31.1777 203.968 31.625C203.719 32.0723 203.37 32.4243 202.923 32.681C202.476 32.9303 201.973 33.055 201.416 33.055ZM201.416 32.362C201.827 32.362 202.193 32.2703 202.516 32.087C202.846 31.8963 203.103 31.6287 203.286 31.284C203.469 30.9393 203.561 30.547 203.561 30.107C203.561 29.667 203.469 29.2747 203.286 28.93C203.103 28.5853 202.846 28.3213 202.516 28.138C202.193 27.9473 201.827 27.852 201.416 27.852C201.005 27.852 200.635 27.9473 200.305 28.138C199.982 28.3213 199.726 28.5853 199.535 28.93C199.352 29.2747 199.26 29.667 199.26 30.107C199.26 30.547 199.352 30.9393 199.535 31.284C199.726 31.6287 199.982 31.8963 200.305 32.087C200.635 32.2703 201.005 32.362 201.416 32.362ZM209.707 30.008C210.492 30.1913 210.884 30.6643 210.884 31.427C210.884 31.933 210.697 32.3217 210.323 32.593C209.949 32.8643 209.392 33 208.651 33H206.022V27.214H208.574C209.234 27.214 209.751 27.3423 210.125 27.599C210.499 27.8557 210.686 28.2223 210.686 28.699C210.686 29.0143 210.598 29.2857 210.422 29.513C210.253 29.733 210.015 29.898 209.707 30.008ZM206.781 29.788H208.519C208.966 29.788 209.307 29.7037 209.542 29.535C209.784 29.3663 209.905 29.1207 209.905 28.798C209.905 28.4753 209.784 28.2333 209.542 28.072C209.307 27.9107 208.966 27.83 208.519 27.83H206.781V29.788ZM208.618 32.384C209.117 32.384 209.491 32.3033 209.74 32.142C209.989 31.9807 210.114 31.7277 210.114 31.383C210.114 31.0383 210 30.7853 209.773 30.624C209.546 30.4553 209.186 30.371 208.695 30.371H206.781V32.384H208.618Z" fill="#402C49"/>
<path d="M38.2499 20.9383L37.0007 19.6891C35.9663 18.6531 34.6568 17.9351 33.2271 17.6199C33.0603 17.2134 32.8662 16.8187 32.6461 16.4384C32.5546 15.5924 32.2246 14.7899 31.6944 14.1244C31.9745 13.4434 32.0824 12.704 32.0088 11.9714C31.9351 11.2388 31.6821 10.5356 31.2721 9.9241C30.862 9.31254 30.3077 8.81143 29.6579 8.46506C29.0082 8.11869 28.2832 7.93773 27.5469 7.93819C26.8547 7.93876 26.1723 8.10078 25.5537 8.41136C25.6702 6.50683 25.0754 4.62688 23.8848 3.13585L22.2815 1.13174C22.2215 1.05672 22.1454 0.996157 22.0588 0.954539C21.9722 0.912921 21.8773 0.891312 21.7813 0.891312C21.6852 0.891312 21.5903 0.912921 21.5037 0.954539C21.4171 0.996157 21.341 1.05672 21.281 1.13174L19.6777 3.13585C19.1375 3.80989 18.7144 4.56986 18.4259 5.38405C17.9362 5.36444 17.4457 5.38144 16.9585 5.4349C15.9514 4.97232 14.8559 4.73355 13.7476 4.73506H12.1719C12.002 4.73506 11.839 4.80256 11.7189 4.9227C11.5988 5.04284 11.5313 5.20578 11.5313 5.37569V7.14233C11.5313 7.37774 11.5422 7.61185 11.5642 7.84466C10.0725 9.18129 9.02856 10.9449 8.57431 12.8956L8.61116 12.9041C8.16223 13.4897 7.86505 14.1771 7.74607 14.9053C7.62709 15.6335 7.69001 16.3798 7.92923 17.0778L5.85509 27.8044C5.69837 27.7818 5.53887 27.8183 5.40752 27.9067C5.27616 27.9951 5.18231 28.1291 5.14417 28.2828L4.58878 30.5042L3.00051 31.0336C2.89692 31.0681 2.80388 31.1285 2.73022 31.2092C2.65655 31.2898 2.60472 31.3879 2.57963 31.4941C2.55454 31.6004 2.55703 31.7113 2.58687 31.8164C2.61671 31.9214 2.6729 32.0171 2.75011 32.0943L2.97579 32.32L1.88614 32.8648C1.40257 33.1066 0.983373 33.4599 0.663105 33.8954C0.342838 34.331 0.130664 34.8365 0.0440675 35.3702C-0.0425287 35.9038 -0.00106778 36.4505 0.165034 36.965C0.331135 37.4795 0.617122 37.9471 0.999426 38.3294C1.38173 38.7117 1.84941 38.9977 2.36392 39.1638C2.87843 39.3299 3.42505 39.3714 3.95872 39.2848C4.49239 39.1981 4.99785 38.986 5.43343 38.6657C5.86901 38.3454 6.22226 37.9262 6.46404 37.4426L7.00883 36.353L7.23448 36.5787C7.3117 36.6559 7.40738 36.7121 7.51242 36.7419C7.61747 36.7718 7.7284 36.7743 7.83469 36.7492C7.94097 36.7241 8.03908 36.6723 8.11969 36.5986C8.2003 36.5249 8.26075 36.4319 8.29528 36.3283L8.82471 34.74L11.046 34.1847C11.1997 34.1465 11.3337 34.0526 11.4221 33.9213C11.5105 33.7899 11.547 33.6305 11.5245 33.4737L24.3182 30.9999C25.5933 30.9939 26.8545 30.735 28.0288 30.2381L28.0245 30.2281C28.9643 30.7859 30.0122 31.1368 31.0984 31.2574L33.6492 31.5408C33.7447 31.5514 33.8413 31.5404 33.932 31.5086C34.0226 31.4768 34.105 31.4251 34.1729 31.3571C34.2409 31.2892 34.2927 31.2068 34.3245 31.1162C34.3563 31.0255 34.3673 30.9289 34.3567 30.8334L34.0732 28.2826C33.9491 27.1543 33.5757 26.0678 32.98 25.1015C33.007 25.097 33.0339 25.0937 33.0609 25.0889C34.6055 24.8136 36.0281 24.0698 37.1357 22.9585L38.2499 21.8443C38.37 21.7242 38.4375 21.5612 38.4375 21.3913C38.4375 21.2214 38.37 21.0585 38.2499 20.9383ZM22.4362 11.8359C21.8949 12.383 21.5037 13.0603 21.3002 13.8026C21.0966 14.5448 21.0877 15.327 21.2742 16.0736C21.4607 16.8203 21.8364 17.5064 22.365 18.0658C22.8936 18.6251 23.5574 19.0389 24.2924 19.2673C23.8961 19.401 23.4807 19.4693 23.0625 19.4694C22.9675 19.4694 22.8722 19.4647 22.7773 19.4578C22.2277 19.1306 21.6142 18.9253 20.9783 18.8558C20.8203 18.7535 20.67 18.6398 20.5286 18.5155C21.0055 17.7019 21.2121 16.7579 21.1187 15.8194C21.0253 14.8809 20.6367 13.9962 20.0088 13.2925C20.6047 12.5176 21.472 11.9971 22.4362 11.8359ZM23.7031 27.1569C23.4847 27.1569 23.2679 27.1197 23.062 27.0469C23.3772 26.9358 23.6579 26.7443 23.8764 26.4915C24.095 26.2386 24.2437 25.9331 24.3079 25.6051C24.3722 25.2771 24.3497 24.9381 24.2428 24.6214C24.1358 24.3048 23.9481 24.0216 23.6981 23.7998C23.6885 23.6362 23.6632 23.4739 23.6225 23.3151C23.6493 23.314 23.6762 23.3132 23.7031 23.3132C24.2128 23.3132 24.7017 23.5157 25.0621 23.8761C25.4225 24.2365 25.625 24.7253 25.625 25.2351C25.625 25.7448 25.4225 26.2336 25.0621 26.594C24.7017 26.9545 24.2128 27.1569 23.7031 27.1569ZM10.8906 18.1882C10.8906 18.1144 10.8938 18.041 10.8987 17.9679C11.2953 18.4149 11.8357 18.7092 12.4263 18.7997C12.7227 19.4983 13.2576 20.0689 13.9357 20.4097C14.6137 20.7505 15.3908 20.8394 16.1282 20.6604C15.6597 21.0465 15.091 21.2915 14.4885 21.3667C13.8861 21.4419 13.2746 21.3442 12.7256 21.085C12.1765 20.8258 11.7125 20.4159 11.3876 19.903C11.0627 19.3901 10.8903 18.7953 10.8906 18.1882ZM15.375 15.6257C15.6549 15.6257 15.9314 15.6869 16.1852 15.8049C16.439 15.9229 16.664 16.095 16.8444 16.309C17.0247 16.523 17.1562 16.7738 17.2295 17.044C17.3029 17.3141 17.3163 17.597 17.269 17.8728C17.2216 18.1487 17.1145 18.4109 16.9553 18.641C16.796 18.8712 16.5884 19.0638 16.347 19.2054C16.1055 19.347 15.8361 19.4341 15.5575 19.4607C15.2788 19.4873 14.9977 19.4528 14.7339 19.3594C15.0491 19.2483 15.3298 19.0568 15.5483 18.804C15.7668 18.5511 15.9156 18.2456 15.9798 17.9176C16.0441 17.5896 16.0216 17.2506 15.9146 16.9339C15.8077 16.6173 15.6199 16.3341 15.37 16.1123C15.3604 15.9487 15.3351 15.7864 15.2944 15.6276C15.3212 15.6265 15.348 15.6257 15.375 15.6257ZM14.0938 16.9069C14.2205 16.9069 14.3443 16.9445 14.4497 17.0149C14.555 17.0853 14.6371 17.1853 14.6856 17.3024C14.7341 17.4195 14.7468 17.5483 14.7221 17.6725C14.6974 17.7968 14.6363 17.911 14.5467 18.0006C14.4572 18.0901 14.343 18.1512 14.2187 18.1759C14.0945 18.2006 13.9657 18.1879 13.8486 18.1394C13.7315 18.0909 13.6315 18.0088 13.5611 17.9035C13.4907 17.7981 13.4531 17.6743 13.4531 17.5476C13.4533 17.3777 13.5209 17.2149 13.641 17.0948C13.7611 16.9747 13.9239 16.9071 14.0938 16.9069ZM12.1797 17.379C12.0082 17.2816 11.8615 17.146 11.751 16.9827C11.6406 16.8193 11.5693 16.6327 11.5428 16.4373C11.5164 16.2418 11.5354 16.043 11.5984 15.8561C11.6615 15.6693 11.7668 15.4995 11.9063 15.3601C12.0457 15.2206 12.2155 15.1153 12.4023 15.0522C12.5892 14.9892 12.788 14.9702 12.9835 14.9966C13.1789 15.0231 13.3655 15.0944 13.5289 15.2048C13.6922 15.3153 13.8278 15.462 13.9252 15.6335C13.4758 15.6737 13.0548 15.8705 12.7357 16.1895C12.4167 16.5086 12.2199 16.9296 12.1797 17.379ZM18.6196 23.4977C18.2792 24.0405 18.0599 24.6505 17.9768 25.2859C17.6964 24.9274 17.4956 24.5132 17.3878 24.071C17.28 23.6288 17.2678 23.1688 17.3518 22.7214C17.4358 22.2741 17.6142 21.8499 17.8751 21.4769C18.136 21.104 18.4734 20.7909 18.8647 20.5586C19.2561 20.3263 19.6925 20.1801 20.1449 20.1297C20.5972 20.0794 21.0551 20.126 21.488 20.2665C21.9209 20.407 22.3189 20.6381 22.6554 20.9445C22.992 21.2509 23.2594 21.6255 23.4398 22.0434C23.269 22.057 23.0997 22.0843 22.9333 22.1252C22.6012 21.7988 22.1863 21.5693 21.7334 21.4612C21.2805 21.3532 20.8067 21.3706 20.363 21.5118C19.9193 21.653 19.5225 21.9125 19.2153 22.2624C18.9081 22.6123 18.7021 23.0394 18.6196 23.4977ZM22.4219 25.8757C22.2952 25.8757 22.1713 25.8381 22.066 25.7677C21.9606 25.6973 21.8785 25.5973 21.83 25.4802C21.7815 25.3632 21.7688 25.2344 21.7936 25.1101C21.8183 24.9858 21.8793 24.8717 21.9689 24.7821C22.0585 24.6925 22.1726 24.6315 22.2969 24.6067C22.4212 24.582 22.55 24.5947 22.667 24.6432C22.7841 24.6917 22.8842 24.7738 22.9545 24.8792C23.0249 24.9845 23.0625 25.1084 23.0625 25.2351C23.0623 25.4049 22.9948 25.5677 22.8747 25.6878C22.7546 25.8079 22.5917 25.8755 22.4219 25.8757ZM21.1406 22.6726C21.3668 22.6728 21.5889 22.7329 21.7843 22.8468C21.9798 22.9607 22.1416 23.1243 22.2533 23.321C21.8039 23.3612 21.3829 23.558 21.0639 23.877C20.7448 24.1961 20.548 24.6171 20.5078 25.0665C20.2619 24.9269 20.0691 24.7099 19.9595 24.4493C19.8499 24.1886 19.8296 23.8991 19.9019 23.6257C19.9742 23.3524 20.1349 23.1106 20.3589 22.9382C20.583 22.7658 20.8579 22.6724 21.1406 22.6726ZM25.625 18.1882C25.0179 18.1885 24.4231 18.0162 23.9102 17.6913C23.3973 17.3664 22.9874 16.9023 22.7282 16.3533C22.469 15.8042 22.3713 15.1928 22.4465 14.5903C22.5217 13.9878 22.7667 13.4191 23.1528 12.9506C22.9738 13.688 23.0627 14.4651 23.4035 15.1431C23.7443 15.8212 24.3149 16.3561 25.0135 16.6524C25.104 17.2431 25.3983 17.7835 25.8453 18.1801C25.7722 18.185 25.6988 18.1882 25.625 18.1882ZM26.2656 15.6257C26.1389 15.6257 26.0151 15.5881 25.9097 15.5177C25.8044 15.4473 25.7223 15.3473 25.6738 15.2302C25.6253 15.1132 25.6126 14.9844 25.6373 14.8601C25.662 14.7358 25.723 14.6217 25.8126 14.5321C25.9022 14.4425 26.0164 14.3815 26.1407 14.3567C26.2649 14.332 26.3937 14.3447 26.5108 14.3932C26.6278 14.4417 26.7279 14.5238 26.7983 14.6291C26.8687 14.7345 26.9063 14.8584 26.9063 14.9851C26.9061 15.1549 26.8385 15.3177 26.7184 15.4378C26.5983 15.5579 26.4355 15.6255 26.2656 15.6257ZM27.5469 17.5476C27.3207 17.5473 27.0986 17.4872 26.9032 17.3733C26.7077 17.2594 26.5459 17.0958 26.4342 16.8991C26.8836 16.8589 27.3046 16.6621 27.6237 16.3431C27.9427 16.024 28.1395 15.6031 28.1797 15.1537C28.4256 15.2932 28.6184 15.5102 28.728 15.7708C28.8376 16.0315 28.8579 16.3211 28.7856 16.5944C28.7134 16.8678 28.5527 17.1095 28.3286 17.2819C28.1045 17.4544 27.8296 17.5478 27.5469 17.5476ZM28.1856 13.7844C28.0268 13.7437 27.8645 13.7184 27.7009 13.7089C27.4791 13.4589 27.1959 13.2711 26.8793 13.1642C26.5626 13.0572 26.2236 13.0348 25.8956 13.099C25.5676 13.1632 25.2621 13.312 25.0092 13.5305C24.7564 13.749 24.5649 14.0298 24.4538 14.3449C24.3604 14.0811 24.3258 13.8 24.3524 13.5213C24.379 13.2427 24.4661 12.9732 24.6077 12.7317C24.7493 12.4903 24.9419 12.2826 25.1721 12.1234C25.4023 11.9641 25.6645 11.857 25.9403 11.8097C26.2162 11.7623 26.4991 11.7757 26.7693 11.8491C27.0394 11.9225 27.2902 12.0539 27.5043 12.2343C27.7183 12.4147 27.8903 12.6397 28.0083 12.8935C28.1264 13.1474 28.1875 13.4239 28.1875 13.7038C28.1875 13.7308 28.1867 13.7576 28.1856 13.7844ZM19.8594 16.2663C19.8575 16.7735 19.7358 17.273 19.5043 17.7243C19.2728 18.1755 18.9381 18.5657 18.5273 18.8631C18.5611 18.6398 18.5781 18.4141 18.5781 18.1882C18.5781 18.073 18.5727 17.9573 18.564 17.8429C18.5729 17.7456 18.5781 17.6472 18.5781 17.5476C18.5773 16.9011 18.3812 16.2699 18.0154 15.7368C17.6497 15.2037 17.1314 14.7936 16.5285 14.5602C16.4049 14.0583 16.1945 13.582 15.9068 13.1526C16.3777 13.0389 16.8683 13.0336 17.3416 13.137C17.8149 13.2404 18.2585 13.4499 18.6391 13.7497C19.0197 14.0495 19.3272 14.4318 19.5386 14.8677C19.75 15.3036 19.8597 15.7818 19.8594 16.2663ZM15.1116 14.3559C14.9409 14.3695 14.7715 14.3968 14.6052 14.4377C14.2731 14.1113 13.8582 13.8818 13.4053 13.7737C12.9524 13.6657 12.4786 13.6831 12.0349 13.8243C11.5912 13.9655 11.1943 14.225 10.8872 14.5749C10.58 14.9248 10.374 15.3519 10.2915 15.8102C9.95105 16.353 9.73177 16.963 9.64864 17.5984C9.36823 17.2399 9.16745 16.8257 9.05968 16.3835C8.95191 15.9413 8.93963 15.4813 9.02365 15.0339C9.10768 14.5866 9.28608 14.1624 9.54696 13.7894C9.80785 13.4165 10.1452 13.1034 10.5366 12.8711C10.928 12.6388 11.3644 12.4926 11.8167 12.4422C12.2691 12.3919 12.727 12.4385 13.1599 12.579C13.5928 12.7195 13.9908 12.9506 14.3273 13.257C14.6639 13.5634 14.9312 13.938 15.1116 14.3559H15.1116ZM14.0938 22.6726C14.8155 22.6731 15.5265 22.4983 16.1657 22.1632C16.0133 22.7374 15.9765 23.3361 16.0574 23.9246C16.1384 24.513 16.3355 25.0796 16.6372 25.5912L13.7002 22.6543C13.83 22.6656 13.961 22.6726 14.0938 22.6726ZM17.3935 28.1595C18.3618 29.1313 19.5259 29.8861 20.8083 30.3736L10.584 32.3506L8.2732 30.0397L13.7734 24.5395L17.3935 28.1595ZM22.4219 29.0788C21.5727 29.0778 20.7585 28.7401 20.158 28.1396C19.5575 27.5391 19.2197 26.7249 19.2188 25.8757C19.2188 25.8019 19.2219 25.7285 19.2269 25.6554C19.6234 26.1024 20.1638 26.3967 20.7545 26.4872C21.0508 27.1858 21.5857 27.7564 22.2638 28.0972C22.9418 28.438 23.7189 28.5269 24.4564 28.3479C23.884 28.821 23.1645 29.0795 22.4219 29.0788ZM26.8921 25.5304C26.9011 25.4331 26.9063 25.3347 26.9063 25.2351C26.9054 24.5886 26.7093 23.9574 26.3436 23.4243C25.9778 22.8912 25.4595 22.4811 24.8566 22.2477C24.733 21.7458 24.5226 21.2695 24.2349 20.8401C24.9565 20.6659 25.7161 20.7478 26.384 21.0719C27.0518 21.3959 27.5862 21.942 27.8958 22.6167C28.2054 23.2913 28.2709 24.0526 28.0811 24.7703C27.8913 25.4879 27.458 26.1172 26.8554 26.5506C26.8893 26.3273 26.9063 26.1016 26.9063 25.8757C26.9063 25.7605 26.9008 25.6448 26.8921 25.5304ZM28.1875 20.1101C27.4725 20.1101 26.778 19.8708 26.2148 19.4302C26.8502 19.3471 27.4602 19.1278 28.003 18.7873C28.4613 18.7048 28.8883 18.4989 29.2383 18.1917C29.5882 17.8845 29.8477 17.4877 29.9889 17.044C30.1301 16.6002 30.1475 16.1264 30.0395 15.6735C29.9314 15.2206 29.7018 14.8057 29.3755 14.4736C29.4164 14.3073 29.4437 14.1379 29.4573 13.9672C30.1339 14.2592 30.689 14.7757 31.0291 15.4294C31.3692 16.0831 31.4735 16.8341 31.3243 17.5558C31.1752 18.2775 30.7817 18.9256 30.2103 19.3909C29.6388 19.8562 28.9244 20.1102 28.1875 20.1101ZM30.75 12.4226C30.7497 12.675 30.7197 12.9266 30.6606 13.172C30.2312 12.8843 29.7549 12.6739 29.253 12.5503C29.0196 11.9474 28.6095 11.4291 28.0764 11.0634C27.5433 10.6976 26.9121 10.5015 26.2656 10.5007C26.1659 10.5007 26.0675 10.5059 25.9701 10.5149C25.8555 10.5061 25.7399 10.5007 25.625 10.5007C25.3991 10.5007 25.1734 10.5177 24.9501 10.5516C25.3456 10.0015 25.9055 9.59117 26.5491 9.37957C27.1927 9.16797 27.8869 9.16603 28.5317 9.37403C29.1765 9.58203 29.7386 9.98925 30.1373 10.5371C30.5359 11.0849 30.7504 11.7451 30.75 12.4226ZM20.6782 3.93623L21.7813 2.55743L22.8843 3.93623C23.5111 4.72128 23.9449 5.64253 24.1508 6.62582C24.3566 7.60912 24.3287 8.62701 24.0694 9.59757C23.8386 9.87989 23.6432 10.1894 23.4875 10.5191C23.3462 10.5075 23.2044 10.5007 23.0625 10.5007C22.8483 10.5008 22.6343 10.5145 22.4219 10.5417V6.01631H21.1406V10.8777C20.8309 11.0035 20.534 11.1591 20.2543 11.3423C19.5449 10.2174 19.2044 8.89909 19.2804 7.57137C19.3564 6.24366 19.8451 4.97281 20.6782 3.93623ZM12.8125 6.01631H13.7476C15.313 6.01365 16.8247 6.58709 17.9944 7.62734C17.9494 8.73729 18.1465 9.84376 18.5721 10.8699L15.7048 8.00259L14.7987 8.90855L17.8286 11.9384C16.9322 11.6948 15.9822 11.7365 15.1106 12.0578C14.3931 11.4549 13.8157 10.7028 13.4188 9.8538C13.0219 9.00483 12.815 8.07949 12.8125 7.14233V6.01631ZM11.8585 9.35052C12.0517 9.99012 12.3266 10.6021 12.6765 11.1713C11.9034 11.0808 11.1202 11.1957 10.4057 11.5044C10.7768 10.7163 11.2668 9.98987 11.8585 9.35052ZM9.11855 18.9098C9.6031 20.0398 10.2992 21.0667 11.1693 21.9354L12.8674 23.6335L7.36719 29.1337L6.97822 28.7448L8.91828 18.7116C8.98279 18.7797 9.04955 18.8457 9.11855 18.9098ZM2.4592 34.0108L3.9308 33.275L3.95276 33.2969L1.58679 37.0149C1.43514 36.7632 1.33722 36.4829 1.29918 36.1915C1.26114 35.9002 1.2838 35.6041 1.36574 35.3219C1.44769 35.0398 1.58714 34.7776 1.77532 34.552C1.9635 34.3263 2.19635 34.1421 2.4592 34.0108ZM5.31809 36.8696C5.07426 37.3578 4.65232 37.7338 4.13934 37.9199C3.62637 38.106 3.06151 38.0881 2.56137 37.8698L4.8808 34.225L6.05384 35.398L5.31809 36.8696ZM8.17275 33.5823C8.06819 33.6085 7.97193 33.6606 7.89285 33.7338C7.81377 33.807 7.75444 33.899 7.72035 34.0012L7.40755 34.9397L4.38905 31.9213L5.32763 31.6084C5.42986 31.5744 5.52184 31.515 5.59505 31.436C5.66827 31.3569 5.72035 31.2606 5.74647 31.1561L6.11269 29.6912L9.63761 33.2161L8.17275 33.5823ZM24.7542 29.7043C25.253 29.399 25.6877 28.9998 26.0343 28.5288C26.2703 28.8129 26.5265 29.0796 26.8008 29.3268C26.137 29.5375 25.4495 29.6643 24.7542 29.7043ZM31.2399 29.984C29.6657 29.809 28.2122 29.057 27.16 27.8731C27.7062 27.5667 28.1828 27.1501 28.5596 26.6498L30.096 28.1861L31.0021 27.2802L29.1986 25.4768C29.2728 25.273 29.3321 25.064 29.3759 24.8516C30.0626 25.0702 30.7767 25.1905 31.4971 25.2088C32.22 26.1396 32.6709 27.2525 32.7998 28.424L32.9948 30.1789L31.2399 29.984ZM36.2297 22.0526C35.3569 22.9187 34.2546 23.5171 33.0528 23.777C31.8511 24.0369 30.6 23.9476 29.4474 23.5196C29.3977 23.0035 29.2582 22.5 29.0352 22.0319H33.3125V20.7507H30.4945C31.2735 20.281 31.8923 19.5868 32.2698 18.7593C33.7168 18.9174 35.0662 19.5651 36.0947 20.5951L36.8909 21.3913L36.2297 22.0526Z" fill="#872CB3"/>
</svg>
