<svg width="141" height="29" viewBox="0 0 141 29" fill="none" xmlns="http://www.w3.org/2000/svg">
<path d="M58.3423 13.985C58.8116 14.1243 59.171 14.3517 59.4203 14.667C59.6696 14.9823 59.7943 15.371 59.7943 15.833C59.7943 16.515 59.534 17.0467 59.0133 17.428C58.5 17.8093 57.763 18 56.8023 18H53.0073V10.3H56.5933C57.488 10.3 58.1846 10.4723 58.6833 10.817C59.182 11.1617 59.4313 11.653 59.4313 12.291C59.4313 12.6723 59.336 13.0097 59.1453 13.303C58.9546 13.589 58.687 13.8163 58.3423 13.985ZM54.7783 13.49H56.4393C56.828 13.49 57.1213 13.413 57.3193 13.259C57.5173 13.0977 57.6163 12.863 57.6163 12.555C57.6163 12.2543 57.5136 12.0233 57.3083 11.862C57.1103 11.7007 56.8206 11.62 56.4393 11.62H54.7783V13.49ZM56.7363 16.68C57.5723 16.68 57.9903 16.35 57.9903 15.69C57.9903 15.052 57.5723 14.733 56.7363 14.733H54.7783V16.68H56.7363ZM63.8436 18.088C63.2202 18.088 62.6592 17.9597 62.1606 17.703C61.6692 17.439 61.2842 17.076 61.0056 16.614C60.7269 16.152 60.5876 15.6277 60.5876 15.041C60.5876 14.4543 60.7269 13.93 61.0056 13.468C61.2842 13.006 61.6692 12.6467 62.1606 12.39C62.6592 12.126 63.2202 11.994 63.8436 11.994C64.4669 11.994 65.0242 12.126 65.5156 12.39C66.0069 12.6467 66.3919 13.006 66.6706 13.468C66.9492 13.93 67.0886 14.4543 67.0886 15.041C67.0886 15.6277 66.9492 16.152 66.6706 16.614C66.3919 17.076 66.0069 17.439 65.5156 17.703C65.0242 17.9597 64.4669 18.088 63.8436 18.088ZM63.8436 16.68C64.2836 16.68 64.6429 16.5333 64.9216 16.24C65.2076 15.9393 65.3506 15.5397 65.3506 15.041C65.3506 14.5423 65.2076 14.1463 64.9216 13.853C64.6429 13.5523 64.2836 13.402 63.8436 13.402C63.4036 13.402 63.0406 13.5523 62.7546 13.853C62.4686 14.1463 62.3256 14.5423 62.3256 15.041C62.3256 15.5397 62.4686 15.9393 62.7546 16.24C63.0406 16.5333 63.4036 16.68 63.8436 16.68ZM68.2688 12.082H69.9738V15.602L72.8558 12.082H74.4288V18H72.7238V14.48L69.8528 18H68.2688V12.082ZM71.2388 11.444C69.9482 11.444 69.2992 10.8757 69.2918 9.739H70.4138C70.4212 9.99567 70.4908 10.1973 70.6228 10.344C70.7622 10.4833 70.9638 10.553 71.2278 10.553C71.4918 10.553 71.6935 10.4833 71.8328 10.344C71.9795 10.1973 72.0528 9.99567 72.0528 9.739H73.1968C73.1895 10.8757 72.5368 11.444 71.2388 11.444ZM81.0504 13.49H79.0484V18H77.3434V13.49H75.3414V12.082H81.0504V13.49ZM81.9651 12.082H83.6701V15.602L86.5521 12.082H88.1251V18H86.4201V14.48L83.5491 18H81.9651V12.082Z" fill="#FD6383"/>
<rect x="0.5" y="0.5" width="140" height="28" stroke="#FD6383"/>
</svg>
