<svg width="93" height="93" viewBox="0 0 93 93" fill="none" xmlns="http://www.w3.org/2000/svg">
<circle cx="46.5" cy="46.5" r="46.5" fill="#FD6383"/>
<path d="M39.875 39.8751C39.875 42.1121 47.0587 44.2917 55.5034 44.2917C63.9458 44.2917 70.7916 42.1121 70.7916 39.8751M55.3333 55.3334C55.3333 52.8932 48.4124 50.9167 39.875 50.9167C31.3376 50.9167 24.4166 52.8932 24.4166 55.3334C24.4166 57.7736 31.3376 59.7501 39.875 59.7501C48.4124 59.7501 55.3333 57.7736 55.3333 55.3334ZM24.4166 55.3334V66.236C24.4166 68.7535 31.3376 70.7917 39.875 70.7917C48.4124 70.7917 55.3333 68.7512 55.3333 66.236V55.3334H24.4166ZM39.875 31.0417C30.1186 31.0417 22.2083 33.0182 22.2083 35.4584C22.2083 37.8986 30.1186 39.8751 39.875 39.8751V31.0417ZM22.2083 35.4584V46.5001C22.2083 48.7371 30.1186 50.9167 39.875 50.9167L22.2083 35.4584ZM70.7916 28.8334C70.7916 26.3932 63.9458 24.4167 55.5034 24.4167C47.0587 24.4167 40.2151 26.3932 40.2151 28.8334C40.2151 31.2736 47.0609 33.2501 55.5034 33.2501C63.9458 33.2501 70.7916 31.2736 70.7916 28.8334ZM55.3333 55.3334C63.778 55.3334 70.7916 53.1538 70.7916 50.9167V28.8334L55.3333 55.3334ZM40.2151 28.8334V51.2833V28.8334Z" stroke="white" stroke-width="2"/>
</svg>
