<svg width="93" height="93" viewBox="0 0 93 93" fill="none" xmlns="http://www.w3.org/2000/svg">
<circle cx="46.5" cy="46.5" r="46.5" fill="#FD6383"/>
<path d="M46.5433 19.2526C46.7195 18.8574 47.2805 18.8574 47.4567 19.2526L54.5963 35.2696C54.8143 35.7587 55.2764 36.0944 55.8089 36.1506L73.2482 37.9913C73.6785 38.0367 73.8519 38.5702 73.5304 38.8599L60.5036 50.5996C60.1059 50.958 59.9294 51.5013 60.0404 52.0251L63.679 69.1797C63.7687 69.603 63.3149 69.9327 62.94 69.7165L47.7494 60.955C47.2856 60.6875 46.7144 60.6875 46.2506 60.955L31.06 69.7165C30.6851 69.9327 30.2312 69.603 30.321 69.1797L33.9596 52.0251C34.0706 51.5013 33.8941 50.958 33.4964 50.5996L20.4696 38.8599C20.1481 38.5702 20.3215 38.0367 20.7518 37.9913L38.1911 36.1506C38.7236 36.0944 39.1857 35.7587 39.4037 35.2696L46.5433 19.2526Z" stroke="white"/>
</svg>
