<svg width="153" height="35" viewBox="0 0 153 35" fill="none" xmlns="http://www.w3.org/2000/svg">
<path d="M64.3423 15.6402C64.8116 15.7795 65.171 16.0068 65.4203 16.3222C65.6696 16.6375 65.7943 17.0262 65.7943 17.4882C65.7943 18.1702 65.534 18.7018 65.0133 19.0832C64.5 19.4645 63.763 19.6552 62.8023 19.6552H59.0073V11.9552H62.5933C63.488 11.9552 64.1846 12.1275 64.6833 12.4722C65.182 12.8168 65.4313 13.3082 65.4313 13.9462C65.4313 14.3275 65.336 14.6648 65.1453 14.9582C64.9546 15.2442 64.687 15.4715 64.3423 15.6402ZM60.7783 15.1452H62.4393C62.828 15.1452 63.1213 15.0682 63.3193 14.9142C63.5173 14.7528 63.6163 14.5182 63.6163 14.2102C63.6163 13.9095 63.5136 13.6785 63.3083 13.5172C63.1103 13.3558 62.8206 13.2752 62.4393 13.2752H60.7783V15.1452ZM62.7363 18.3352C63.5723 18.3352 63.9903 18.0052 63.9903 17.3452C63.9903 16.7072 63.5723 16.3882 62.7363 16.3882H60.7783V18.3352H62.7363ZM69.8436 19.7432C69.2203 19.7432 68.6593 19.6148 68.1606 19.3582C67.6693 19.0942 67.2843 18.7312 67.0056 18.2692C66.7269 17.8072 66.5876 17.2828 66.5876 16.6962C66.5876 16.1095 66.7269 15.5852 67.0056 15.1232C67.2843 14.6612 67.6693 14.3018 68.1606 14.0452C68.6593 13.7812 69.2203 13.6492 69.8436 13.6492C70.4669 13.6492 71.0243 13.7812 71.5156 14.0452C72.0069 14.3018 72.3919 14.6612 72.6706 15.1232C72.9493 15.5852 73.0886 16.1095 73.0886 16.6962C73.0886 17.2828 72.9493 17.8072 72.6706 18.2692C72.3919 18.7312 72.0069 19.0942 71.5156 19.3582C71.0243 19.6148 70.4669 19.7432 69.8436 19.7432ZM69.8436 18.3352C70.2836 18.3352 70.6429 18.1885 70.9216 17.8952C71.2076 17.5945 71.3506 17.1948 71.3506 16.6962C71.3506 16.1975 71.2076 15.8015 70.9216 15.5082C70.6429 15.2075 70.2836 15.0572 69.8436 15.0572C69.4036 15.0572 69.0406 15.2075 68.7546 15.5082C68.4686 15.8015 68.3256 16.1975 68.3256 16.6962C68.3256 17.1948 68.4686 17.5945 68.7546 17.8952C69.0406 18.1885 69.4036 18.3352 69.8436 18.3352ZM74.2689 13.7372H75.9739V17.2572L78.8559 13.7372H80.4289V19.6552H78.7239V16.1352L75.8529 19.6552H74.2689V13.7372ZM77.2389 13.0992C75.9482 13.0992 75.2992 12.5308 75.2919 11.3942H76.4139C76.4212 11.6508 76.4909 11.8525 76.6229 11.9992C76.7622 12.1385 76.9639 12.2082 77.2279 12.2082C77.4919 12.2082 77.6935 12.1385 77.8329 11.9992C77.9795 11.8525 78.0529 11.6508 78.0529 11.3942H79.1969C79.1895 12.5308 78.5369 13.0992 77.2389 13.0992ZM87.0504 15.1452H85.0484V19.6552H83.3434V15.1452H81.3414V13.7372H87.0504V15.1452ZM87.9651 13.7372H89.6701V17.2572L92.5521 13.7372H94.1251V19.6552H92.4201V16.1352L89.5491 19.6552H87.9651V13.7372Z" fill="#FD6383"/>
<rect x="0.5" y="0.5" width="152" height="34" stroke="#FD6383"/>
</svg>
